<?xml version="1.0" encoding="UTF-8" standalone="no"?>
<svg
   xmlns:dc="http://purl.org/dc/elements/1.1/"
   xmlns:cc="http://creativecommons.org/ns#"
   xmlns:rdf="http://www.w3.org/1999/02/22-rdf-syntax-ns#"
   xmlns:svg="http://www.w3.org/2000/svg"
   xmlns="http://www.w3.org/2000/svg"
   xmlns:sodipodi="http://sodipodi.sourceforge.net/DTD/sodipodi-0.dtd"
   xmlns:inkscape="http://www.inkscape.org/namespaces/inkscape"
   inkscape:version="1.0 (4035a4fb49, 2020-05-01)"
   sodipodi:docname="logo-cleaned.svg"
   id="svg138"
   height="510"
   width="510"
   version="1.1">
  <metadata
     id="metadata144">
    <rdf:RDF>
      <cc:Work
         rdf:about="">
        <dc:format>image/svg+xml</dc:format>
        <dc:type
           rdf:resource="http://purl.org/dc/dcmitype/StillImage" />
        <dc:title></dc:title>
      </cc:Work>
    </rdf:RDF>
  </metadata>
  <defs
     id="defs142" />
  <sodipodi:namedview
     inkscape:current-layer="strokes"
     inkscape:window-maximized="0"
     inkscape:window-y="312"
     inkscape:window-x="95"
     inkscape:cy="255"
     inkscape:cx="221.24062"
     inkscape:zoom="1"
     showgrid="false"
     id="namedview140"
     inkscape:window-height="1546"
     inkscape:window-width="2121"
     inkscape:pageshadow="2"
     inkscape:pageopacity="0"
     guidetolerance="10"
     gridtolerance="10"
     objecttolerance="10"
     borderopacity="1"
     bordercolor="#666666"
     pagecolor="#ffffff" />
  <g
     style="fill:#000000;fill-opacity:1;stroke:#8f1818;stroke-opacity:1;stroke-width:2.5;stroke-miterlimit:4;stroke-dasharray:5,2.5,1.25,2.5;stroke-dashoffset:0;paint-order:normal"
     inkscape:label="View Layer_LineSet"
     inkscape:groupmode="lineset"
     id="View Layer_LineSet">
    <g
       style="fill:#000000;fill-opacity:1;stroke:#8f1818;stroke-opacity:1;stroke-width:2.5;stroke-miterlimit:4;stroke-dasharray:5,2.5,1.25,2.5;stroke-dashoffset:0;paint-order:normal"
       inkscape:label="strokes"
       id="strokes"
       inkscape:groupmode="layer">
      <path
         inkscape:export-ydpi="28.572332"
         inkscape:export-xdpi="28.572332"
         d="M 162.27734 32.207031 L 155.1582 32.373047 L 148.08203 33.097656 L 141.09961 34.353516 L 134.25586 36.117188 L 127.59961 38.363281 L 121.17773 41.072266 L 115.03711 44.216797 L 109.22852 47.773438 L 103.79688 51.71875 L 98.787109 56.027344 L 94.253906 60.677734 L 90.236328 65.642578 L 107.50586 83.683594 L 111.38281 79.650391 L 115.23242 76.029297 L 119.03906 72.804688 L 122.79297 69.953125 L 126.47852 67.462891 L 130.08008 65.308594 L 133.58984 63.474609 L 136.99023 61.943359 L 140.27148 60.695312 L 143.41797 59.710938 L 146.41406 58.972656 L 149.25391 58.460938 L 151.88281 58.121094 L 154.56641 57.869141 L 157.2832 57.703125 L 160.01562 57.626953 L 162.74219 57.638672 L 165.44336 57.740234 L 168.09961 57.935547 L 170.69141 58.222656 L 173.19922 58.605469 L 175.60352 59.082031 L 177.88281 59.65625 L 180.01953 60.328125 L 180.01953 118.18164 L 168.79688 115.22266 L 180.01953 132.28516 L 180.01953 195.59766 L 179.5332 196.16016 L 179.06445 196.70312 L 178.60547 197.23438 L 178.15234 197.75586 L 177.69727 198.2793 L 177.23828 198.80859 L 176.76953 199.35156 L 176.2832 199.91406 L 175.77539 200.50586 L 175.24023 201.13281 L 174.67578 201.79883 L 174.07031 202.51367 L 131.57812 251.96484 L 89.085938 301.41602 L 60.179688 335.05664 L 58.332031 337.29688 L 56.476562 339.57422 L 54.640625 341.88281 L 52.857422 344.21289 L 51.15625 346.55859 L 49.570312 348.91406 L 48.126953 351.27148 L 46.857422 353.62305 L 45.792969 355.96289 L 44.966797 358.28125 L 44.404297 360.57422 L 44.140625 362.83203 L 109.3418 362.83203 L 174.54102 362.83203 L 239.74023 362.83203 L 247.78125 362.83203 L 247.78125 358.18164 L 247.78125 353.54297 L 247.78125 348.91406 L 247.78125 344.29297 L 247.78125 339.67969 L 247.78125 335.07031 L 247.78125 330.46289 L 247.78125 325.85352 L 247.78125 321.24414 L 247.78125 316.63086 L 247.78125 312.00977 L 247.78125 307.38086 L 182.58203 307.38086 L 121.28711 307.38086 L 127.5332 300.29492 L 133.7793 293.21289 L 140.02539 286.13477 L 146.26953 279.05859 L 152.51562 271.98438 L 158.76172 264.91211 L 165.00781 257.8418 L 171.25195 250.76953 L 177.49805 243.69922 L 183.74219 236.62891 L 189.98828 229.55664 L 196.23438 222.48242 L 201.01953 216.87891 L 205.57617 211.4082 L 209.90234 206.07227 L 213.99609 200.86719 L 217.86328 195.79492 L 221.49805 190.85547 L 224.90234 186.04883 L 228.07812 181.37305 L 231.02344 176.83008 L 233.73828 172.42188 L 236.22266 168.14453 L 238.47656 164.00195 L 240.18945 160.57422 L 241.74219 157.11719 L 243.13867 153.59766 L 244.37891 149.99219 L 245.46484 146.27344 L 246.39844 142.41211 L 247.18555 138.38477 L 247.82227 134.16016 L 248.31445 129.71484 L 248.66406 125.01953 L 248.87305 120.04688 L 248.94141 114.77148 L 248.74414 110.64648 L 248.16016 106.21484 L 247.19531 101.53125 L 245.85352 96.652344 L 244.14062 91.634766 L 242.06445 86.533203 L 239.63281 81.402344 L 236.84766 76.300781 L 233.71875 71.283203 L 230.25 66.404297 L 226.44727 61.722656 L 222.32031 57.289062 L 219.62891 54.763672 L 216.43555 52.089844 L 212.76367 49.335938 L 208.63867 46.570312 L 204.08594 43.861328 L 199.12891 41.277344 L 193.79297 38.886719 L 188.10156 36.757812 L 182.07812 34.955078 L 175.75195 33.550781 L 169.14258 32.611328 L 162.27734 32.207031 z M 187.44922 62.988281 L 189.27539 64 L 191.12695 65.105469 L 192.99023 66.298828 L 194.84766 67.566406 L 196.68164 68.904297 L 198.48047 70.300781 L 200.22266 71.748047 L 201.89648 73.236328 L 203.48242 74.757812 L 204.96484 76.300781 L 206.32812 77.859375 L 207.55664 79.423828 L 207.44531 144.62305 L 207.42578 156.32031 L 205.62305 159.46289 L 203.86914 162.36523 L 202.1543 165.06445 L 200.47656 167.59375 L 198.82422 169.98438 L 197.19141 172.27344 L 195.57422 174.49219 L 193.96289 176.67969 L 192.35156 178.86523 L 190.73438 181.08789 L 189.10156 183.37695 L 187.44922 185.76758 L 187.44922 132.30273 L 198.49414 115.30859 L 187.44922 118.19922 L 187.44922 62.988281 z M 114.16016 313.82617 L 179.35938 314.11133 L 239.55664 314.37305 L 239.55664 329.97852 L 174.35742 329.91992 L 167.54102 329.91211 L 172.35742 318.68945 L 153.4375 329.91211 L 99.515625 329.89062 L 114.16016 313.82617 z M 92.925781 337.06445 L 153.42188 337.3418 L 172.27148 348.38672 L 167.52344 337.3418 L 232.72461 337.4375 L 239.55664 337.44727 L 239.55664 355.80078 L 237.08203 355.76367 L 230.20117 355.74609 L 219.73047 355.74805 L 206.48242 355.76562 L 191.27148 355.79688 L 174.91016 355.8418 L 158.2168 355.89453 L 142.00391 355.95312 L 127.08594 356.01953 L 114.27734 356.08789 L 104.39062 356.15625 L 98.242188 356.22461 L 80.988281 356.38477 L 81.369141 354.51367 L 81.933594 352.63086 L 82.658203 350.74805 L 83.523438 348.89062 L 84.507812 347.07227 L 85.587891 345.31641 L 86.744141 343.63672 L 87.955078 342.05469 L 89.199219 340.58789 L 90.457031 339.25391 L 91.707031 338.07422 L 92.925781 337.06445 z "
         style="fill:#000000;fill-opacity:1;stroke:none;stroke-opacity:1;stroke-width:2.5;stroke-miterlimit:4;stroke-dasharray:5, 2.50000000000000000, 1.25000000000000000, 2.50000000000000000;stroke-dashoffset:0;paint-order:normal"
         id="path96" />
      <path
         d="m 46.824401,387.90368 v 59.74024 h 11.957032 v -11.95704 h 11.955078 l 0.816406,-0.0117 0.806641,-0.0391 0.800781,-0.0664 0.791016,-0.0918 0.785156,-0.11719 0.777344,-0.14257 0.767578,-0.16797 0.759765,-0.19532 0.753907,-0.22265 0.74414,-0.2461 0.738281,-0.27539 0.728516,-0.29883 0.71875,-0.32226 0.701172,-0.33984 0.6875,-0.36133 0.671875,-0.37891 0.658203,-0.39844 0.640625,-0.41601 0.625,-0.4375 0.611328,-0.45703 0.595703,-0.47266 0.580078,-0.49414 0.564453,-0.51367 0.548829,-0.53125 0.533203,-0.54883 0.511718,-0.56641 0.494141,-0.58007 0.474609,-0.59375 0.455079,-0.61133 0.4375,-0.625 0.417968,-0.64258 0.396485,-0.65625 0.378906,-0.67188 0.361328,-0.68554 0.341797,-0.70313 0.322266,-0.71875 0.298828,-0.72851 0.273437,-0.73828 0.248047,-0.7461 0.220703,-0.75195 0.195313,-0.75977 0.169922,-0.76953 0.142578,-0.77539 0.117187,-0.78515 0.08984,-0.79102 0.06641,-0.80078 0.03906,-0.80664 0.01172,-0.81641 -0.0059,-0.54687 -0.01758,-0.54297 -0.0293,-0.53907 -0.04101,-0.5371 -0.05469,-0.53321 -0.06445,-0.52929 -0.07617,-0.5254 -0.08984,-0.52343 -0.101562,-0.51758 -0.111328,-0.51758 -0.125,-0.51172 -0.136719,-0.50781 -0.146484,-0.50391 -0.158204,-0.5 -0.166015,-0.49218 -0.177735,-0.49024 -0.185546,-0.48242 -0.197266,-0.47852 -0.205078,-0.47265 -0.216797,-0.46875 -0.226563,-0.46094 -0.236328,-0.45898 -0.24414,-0.45118 -0.25586,-0.44726 -0.265625,-0.44141 -0.273437,-0.43359 -0.28125,-0.42774 -0.291016,-0.42187 -0.298828,-0.41406 -0.308594,-0.40821 -0.316406,-0.40039 -0.326172,-0.39453 -0.333984,-0.38867 -0.34375,-0.38086 -0.34961,-0.375 -0.361328,-0.36719 -0.367187,-0.35937 -0.373047,-0.35352 -0.38086,-0.34179 -0.386718,-0.33399 -0.392578,-0.32617 -0.400391,-0.31641 -0.40625,-0.30859 -0.412109,-0.29883 -0.419922,-0.29101 -0.423828,-0.28125 -0.431641,-0.27344 -0.4375,-0.26367 -0.443359,-0.25782 -0.449219,-0.24414 -0.455078,-0.23633 -0.458985,-0.22656 -0.466796,-0.21484 -0.470704,-0.20703 -0.476562,-0.19531 -0.482422,-0.1875 -0.486328,-0.17579 -0.494141,-0.16797 -0.498047,-0.15624 -0.503906,-0.14844 -0.509766,-0.13672 -0.511718,-0.125 -0.515625,-0.11133 -0.517578,-0.10156 -0.523438,-0.0879 -0.527344,-0.0781 -0.527343,-0.0645 -0.533204,-0.0547 -0.537109,-0.041 -0.539062,-0.0293 -0.544922,-0.0176 -0.546875,-0.006 z m 11.957032,11.95703 h 11.955078 l 0.408203,0.006 0.404297,0.0195 0.398437,0.0312 0.396485,0.0469 0.390625,0.0586 0.386718,0.0723 0.384766,0.084 0.378906,0.0977 0.375,0.11133 0.371094,0.12304 0.367187,0.13672 0.363282,0.15039 0.357422,0.16016 0.349609,0.16992 0.341797,0.18164 0.335937,0.1875 0.326172,0.19922 0.320313,0.20899 0.3125,0.21874 0.302734,0.22852 0.298828,0.23828 0.289063,0.2461 0.28125,0.25586 0.27539,0.26562 0.265625,0.27539 0.25586,0.28125 0.248047,0.29102 0.236328,0.29882 0.228515,0.30664 0.21875,0.3125 0.208985,0.32227 0.199219,0.32813 0.189453,0.33789 0.179687,0.34375 0.171875,0.35351 0.160156,0.36133 0.148438,0.36523 0.136719,0.3711 0.125,0.37305 0.109375,0.3789 0.09766,0.38086 0.08594,0.38672 0.07031,0.38867 0.05859,0.39063 0.04492,0.39843 0.0332,0.39844 0.02148,0.4043 0.0059,0.4082 -0.0059,0.4082 -0.02148,0.4043 -0.0332,0.40039 -0.04492,0.39649 -0.05859,0.39257 -0.07031,0.38868 -0.08594,0.38476 -0.09766,0.38281 -0.109375,0.37696 -0.125,0.37304 -0.136719,0.3711 -0.148438,0.36523 -0.160156,0.36133 -0.171875,0.35352 -0.179687,0.34375 -0.189453,0.33789 -0.199219,0.33007 -0.208985,0.32032 -0.21875,0.31445 -0.228515,0.30469 -0.236328,0.29883 -0.248047,0.29101 -0.25586,0.28125 -0.265625,0.27539 -0.27539,0.26563 -0.28125,0.25586 -0.289063,0.24804 -0.298828,0.23829 -0.302734,0.22656 -0.3125,0.21875 -0.320313,0.20898 -0.326172,0.19922 -0.335937,0.18945 -0.341797,0.17969 -0.349609,0.17188 -0.357422,0.16015 -0.363282,0.15039 -0.367187,0.13477 -0.371094,0.125 -0.375,0.11133 -0.378906,0.0957 -0.382813,0.0859 -0.388671,0.0703 -0.390625,0.0586 -0.396485,0.0469 -0.398437,0.0312 -0.404297,0.0215 -0.408203,0.006 H 58.781433 Z"
         style="fill:#000000;fill-opacity:1;stroke:none;stroke-width:2.5;stroke-miterlimit:4;stroke-dasharray:5, 2.5, 1.25, 2.5;stroke-dashoffset:0;stroke-opacity:1;paint-order:normal"
         id="path104" />
      <path
         d="m 130.00019,387.03845 -4.24219,0.28515 -4.06836,0.83204 -3.85742,1.33984 -3.60938,1.81445 -3.32617,2.2461 -3.00195,2.64257 -2.64453,3.00196 -2.2461,3.32617 -1.8125,3.60937 -1.339848,3.85743 -0.832028,4.07031 -0.285156,4.24023 0.285156,4.24219 0.832028,4.06836 1.339848,3.85742 1.8125,3.60938 2.2461,3.32617 2.64453,3.00195 3.00195,2.64453 3.32617,2.2461 3.60938,1.8125 3.85742,1.33984 4.06836,0.83203 4.24219,0.28516 4.24023,-0.28516 4.07031,-0.83203 3.85742,-1.33984 3.60938,-1.8125 3.32617,-2.2461 3.00195,-2.64453 2.64258,-3.00195 2.24805,-3.32617 1.8125,-3.60938 1.33984,-3.85742 0.83203,-4.06836 0.28516,-4.24219 -0.28516,-4.24023 -0.83203,-4.07031 -1.33984,-3.85743 -1.8125,-3.60937 -2.24805,-3.32617 -2.64258,-3.00196 -3.00195,-2.64257 -3.32617,-2.2461 -3.60938,-1.81445 -3.85742,-1.33984 -4.07031,-0.83204 z m 0.1914,11.98828 0.64844,0.01 0.64453,0.0312 0.63672,0.0527 0.63086,0.0723 0.625,0.0937 0.62109,0.11524 0.61328,0.13476 0.60547,0.15625 0.60156,0.17774 0.59571,0.19726 0.58789,0.21875 0.58398,0.24024 0.57227,0.25781 0.5625,0.27149 0.54687,0.28711 0.53516,0.30078 0.52148,0.3164 0.50977,0.33008 0.49805,0.34766 0.48437,0.35937 0.47071,0.375 0.45898,0.39063 0.44726,0.40429 0.43165,0.42188 0.41992,0.43164 0.40625,0.44727 0.38867,0.45898 0.375,0.4707 0.36133,0.48438 0.3457,0.49609 0.33203,0.51172 0.31641,0.52148 0.30078,0.53516 0.28711,0.54883 0.27344,0.56055 0.25586,0.57226 0.24023,0.58203 0.21875,0.58985 0.19727,0.5957 0.17773,0.59961 0.1543,0.60742 0.13672,0.61524 0.11328,0.61718 0.0957,0.625 0.0723,0.63282 0.0527,0.63671 0.0293,0.64453 0.0117,0.64844 -0.0117,0.65039 -0.0293,0.64258 -0.0527,0.63477 -0.0723,0.63086 -0.0957,0.62109 -0.11328,0.61719 -0.13672,0.60937 -0.1543,0.60352 -0.17773,0.5957 -0.19727,0.58985 -0.21875,0.58203 -0.24023,0.57617 -0.25586,0.5664 -0.27344,0.55469 -0.28711,0.54297 -0.30078,0.53125 -0.31641,0.52149 -0.33203,0.50585 -0.3457,0.4961 -0.36133,0.48437 -0.375,0.47266 -0.38867,0.45898 -0.40625,0.44727 -0.41992,0.4375 -0.43165,0.42383 -0.44726,0.4082 -0.45898,0.39258 -0.47071,0.37695 -0.48437,0.36328 -0.49805,0.34766 -0.50977,0.33203 -0.52148,0.31836 -0.53516,0.30273 -0.54687,0.28711 -0.5625,0.27344 -0.57227,0.25586 -0.58398,0.24024 -0.58789,0.21874 -0.59571,0.19922 -0.60156,0.17578 -0.60547,0.15626 -0.61328,0.13476 -0.62109,0.11524 -0.625,0.0937 -0.63086,0.0723 -0.63672,0.0527 -0.64453,0.0313 -0.64844,0.01 -0.65625,-0.01 -0.65039,-0.0313 -0.64258,-0.0527 -0.63476,-0.0723 -0.62696,-0.0937 -0.62304,-0.11524 -0.61328,-0.13476 -0.60938,-0.15626 -0.59961,-0.17578 -0.59375,-0.19922 -0.58594,-0.21874 -0.58007,-0.24024 -0.57032,-0.25586 -0.55859,-0.27344 -0.54492,-0.28711 -0.53321,-0.30273 -0.52343,-0.31836 -0.50781,-0.33203 -0.49805,-0.34766 -0.48438,-0.36328 -0.47461,-0.37695 -0.46093,-0.39258 -0.44727,-0.4082 -0.4375,-0.42383 -0.42187,-0.4375 -0.40821,-0.44727 -0.39453,-0.45898 -0.37695,-0.47266 -0.36133,-0.48437 -0.34961,-0.4961 -0.33203,-0.50585 -0.31641,-0.52149 -0.30273,-0.53125 -0.28906,-0.54297 -0.27149,-0.55469 -0.25781,-0.5664 -0.24023,-0.57617 -0.21876,-0.58203 -0.19726,-0.58985 -0.17774,-0.5957 -0.15624,-0.60352 -0.13477,-0.60937 -0.11523,-0.61719 -0.0938,-0.62109 -0.0723,-0.63086 -0.0527,-0.63477 -0.0312,-0.64258 -0.01,-0.65039 0.01,-0.64844 0.0312,-0.64453 0.0527,-0.63671 0.0723,-0.63282 0.0938,-0.625 0.11523,-0.61718 0.13477,-0.61524 0.15624,-0.60742 0.17774,-0.59961 0.19726,-0.5957 0.21876,-0.58985 0.24023,-0.58203 0.25781,-0.57226 0.27149,-0.56055 0.28906,-0.54883 0.30273,-0.53516 0.31641,-0.52148 0.33203,-0.51172 0.34961,-0.49609 0.36133,-0.48438 0.37695,-0.4707 0.39453,-0.45898 0.40821,-0.44727 0.42187,-0.43164 0.4375,-0.42188 0.44727,-0.40429 0.46093,-0.39063 0.47461,-0.375 0.48438,-0.35937 0.49805,-0.34766 0.50781,-0.33008 0.52343,-0.3164 0.53321,-0.30078 0.54492,-0.28711 0.55859,-0.27149 0.57032,-0.25781 0.58007,-0.24024 0.58594,-0.21875 0.59375,-0.19726 0.59961,-0.17774 0.60938,-0.15625 0.61328,-0.13476 0.62304,-0.11524 0.62696,-0.0937 0.63476,-0.0723 0.64258,-0.0527 0.65039,-0.0312 z"
         style="fill:#000000;fill-opacity:1;stroke:none;stroke-width:2.5;stroke-miterlimit:4;stroke-dasharray:5, 2.5, 1.25, 2.5;stroke-dashoffset:0;stroke-opacity:1;paint-order:normal"
         id="path108" />
      <path
         style="fill:#000000;fill-opacity:1;stroke:none;stroke-width:2.5;stroke-miterlimit:4;stroke-dasharray:5, 2.5, 1.25, 2.5;stroke-dashoffset:0;stroke-opacity:1;paint-order:normal"
         id="path112"
         d="m 209.79692,387.90326 h -27.412 l -0.615,0.01 -0.609,0.03 -0.602,0.049 -0.595,0.069 -0.59,0.088 -0.582,0.109 -0.577,0.127 -0.57,0.148 -0.564,0.167 -0.558,0.187 -0.551,0.207 -0.544,0.226 -0.536,0.243 -0.525,0.257 -0.513,0.272 -0.502,0.285 -0.491,0.3 -0.48,0.314 -0.468,0.329 -0.457,0.342 -0.446,0.357 -0.434,0.37 -0.423,0.385 -0.412,0.399 -0.399,0.412 -0.385,0.423 -0.371,0.435 -0.356,0.445 -0.343,0.457 -0.328,0.468 -0.314,0.48 -0.3,0.491 -0.285,0.502 -0.272,0.513 -0.257,0.525 -0.243,0.536 -0.227,0.545 -0.206,0.551 -0.187,0.557 -0.167,0.564 -0.148,0.57 -0.128,0.577 -0.108,0.583 -0.088,0.589 -0.069,0.596 -0.05,0.602 -0.029,0.608 -0.01,0.615 0.01,0.615 0.029,0.609 0.05,0.602 0.069,0.597 0.088,0.591 0.108,0.584 0.128,0.579 0.148,0.572 0.167,0.566 0.187,0.561 0.206,0.554 0.227,0.548 0.243,0.539 0.257,0.528 0.272,0.516 0.285,0.504 0.3,0.493 0.314,0.482 0.328,0.47 0.343,0.458 0.356,0.447 0.371,0.435 0.385,0.423 0.399,0.412 0.412,0.399 0.423,0.385 0.434,0.371 0.446,0.357 0.457,0.342 0.468,0.328 0.48,0.314 0.491,0.3 0.502,0.286 0.513,0.271 0.525,0.258 0.536,0.243 0.544,0.226 0.551,0.207 0.558,0.186 0.564,0.168 0.57,0.147 0.577,0.128 0.582,0.108 0.59,0.089 0.595,0.069 0.602,0.049 0.609,0.029 0.615,0.01 h 11.956 l 0.207,0.003 0.205,0.01 0.202,0.016 0.201,0.022 0.197,0.029 0.196,0.035 0.193,0.041 0.191,0.048 0.189,0.054 0.186,0.06 0.184,0.067 0.182,0.073 0.178,0.079 0.175,0.084 0.171,0.089 0.168,0.093 0.163,0.099 0.16,0.103 0.156,0.109 0.153,0.113 0.148,0.118 0.145,0.123 0.141,0.128 0.137,0.133 0.133,0.137 0.128,0.141 0.123,0.145 0.119,0.149 0.113,0.152 0.108,0.156 0.104,0.16 0.098,0.163 0.094,0.168 0.088,0.171 0.084,0.175 0.079,0.178 0.073,0.182 0.067,0.184 0.06,0.186 0.055,0.189 0.047,0.191 0.042,0.193 0.035,0.196 0.028,0.198 0.023,0.2 0.015,0.202 0.01,0.205 0.003,0.207 -0.003,0.208 -0.01,0.204 -0.015,0.203 -0.023,0.2 -0.028,0.198 -0.035,0.196 -0.042,0.193 -0.047,0.191 -0.055,0.188 -0.06,0.187 -0.067,0.184 -0.073,0.181 -0.079,0.179 -0.084,0.175 -0.088,0.171 -0.094,0.167 -0.098,0.164 -0.104,0.16 -0.108,0.156 -0.113,0.152 -0.119,0.149 -0.123,0.145 -0.128,0.141 -0.133,0.137 -0.137,0.133 -0.141,0.128 -0.145,0.123 -0.148,0.118 -0.153,0.113 -0.156,0.109 -0.16,0.103 -0.163,0.099 -0.168,0.093 -0.171,0.089 -0.175,0.084 -0.178,0.078 -0.182,0.074 -0.184,0.066 -0.186,0.061 -0.189,0.054 -0.191,0.048 -0.193,0.041 -0.196,0.035 -0.197,0.029 -0.201,0.022 -0.202,0.016 -0.205,0.01 -0.207,0.003 h -26.537 v 11.956 h 26.537 l 0.615,-0.01 0.609,-0.029 0.602,-0.05 0.597,-0.068 0.591,-0.089 0.584,-0.108 0.579,-0.128 0.572,-0.148 0.566,-0.167 0.561,-0.187 0.554,-0.206 0.548,-0.226 0.539,-0.244 0.528,-0.257 0.516,-0.271 0.504,-0.286 0.493,-0.3 0.482,-0.314 0.47,-0.328 0.458,-0.343 0.447,-0.356 0.435,-0.371 0.423,-0.385 0.412,-0.399 0.399,-0.412 0.385,-0.423 0.37,-0.434 0.355,-0.446 0.341,-0.457 0.327,-0.468 0.312,-0.48 0.298,-0.49 0.283,-0.503 0.269,-0.513 0.254,-0.525 0.24,-0.535 0.223,-0.545 0.203,-0.551 0.184,-0.558 0.165,-0.564 0.146,-0.57 0.126,-0.576 0.106,-0.583 0.087,-0.59 0.068,-0.595 0.049,-0.602 0.029,-0.609 0.009,-0.615 -0.009,-0.614 -0.029,-0.609 -0.049,-0.603 -0.068,-0.597 -0.087,-0.59 -0.106,-0.585 -0.126,-0.578 -0.146,-0.573 -0.165,-0.566 -0.184,-0.56 -0.203,-0.554 -0.223,-0.549 -0.24,-0.539 -0.254,-0.527 -0.269,-0.517 -0.283,-0.504 -0.298,-0.493 -0.312,-0.482 -0.327,-0.469 -0.341,-0.459 -0.355,-0.446 -0.37,-0.435 -0.385,-0.424 -0.399,-0.412 -0.412,-0.399 -0.423,-0.384 -0.435,-0.37 -0.447,-0.356 -0.458,-0.341 -0.47,-0.327 -0.482,-0.312 -0.493,-0.297 -0.504,-0.284 -0.516,-0.268 -0.528,-0.255 -0.539,-0.24 -0.548,-0.222 -0.554,-0.204 -0.561,-0.184 -0.566,-0.165 -0.572,-0.145 -0.579,-0.126 -0.584,-0.107 -0.591,-0.087 -0.597,-0.068 -0.602,-0.048 -0.609,-0.029 -0.615,-0.01 h -11.956 l -0.207,-0.003 -0.205,-0.01 -0.203,-0.016 -0.2,-0.022 -0.198,-0.029 -0.195,-0.035 -0.194,-0.041 -0.191,-0.048 -0.188,-0.054 -0.187,-0.06 -0.184,-0.067 -0.181,-0.073 -0.179,-0.079 -0.175,-0.084 -0.171,-0.089 -0.167,-0.093 -0.164,-0.099 -0.16,-0.103 -0.156,-0.108 -0.152,-0.114 -0.149,-0.118 -0.144,-0.123 -0.142,-0.128 -0.137,-0.133 -0.133,-0.137 -0.128,-0.142 -0.123,-0.145 -0.118,-0.15 -0.113,-0.154 -0.109,-0.157 -0.103,-0.162 -0.099,-0.166 -0.093,-0.17 -0.089,-0.173 -0.084,-0.178 -0.078,-0.182 -0.074,-0.185 -0.066,-0.187 -0.061,-0.189 -0.054,-0.192 -0.048,-0.193 -0.041,-0.195 -0.035,-0.197 -0.029,-0.199 -0.022,-0.201 -0.016,-0.204 -0.009,-0.205 -0.004,-0.207 0.004,-0.207 0.009,-0.205 0.016,-0.203 0.022,-0.2 0.029,-0.198 0.035,-0.195 0.041,-0.193 0.048,-0.191 0.054,-0.189 0.061,-0.186 0.066,-0.184 0.074,-0.182 0.078,-0.179 0.084,-0.175 0.089,-0.171 0.093,-0.167 0.099,-0.164 0.103,-0.159 0.109,-0.157 0.113,-0.152 0.118,-0.148 0.123,-0.145 0.128,-0.141 0.133,-0.137 0.137,-0.133 0.142,-0.128 0.144,-0.124 0.149,-0.118 0.152,-0.113 0.156,-0.108 0.16,-0.104 0.164,-0.098 0.167,-0.094 0.171,-0.089 0.175,-0.083 0.179,-0.079 0.181,-0.073 0.184,-0.067 0.187,-0.061 0.188,-0.054 0.191,-0.047 0.194,-0.042 0.195,-0.035 0.198,-0.028 0.2,-0.023 0.203,-0.016 0.205,-0.009 0.207,-0.003 h 27.412 v -11.957"
         stroke-linejoin="miter"
         stroke="rgb(13, 69, 7)"
         stroke-opacity="1.0"
         stroke-linecap="butt"
         stroke-width="0.20000004768371582"
         fill="none" />
      <path
         style="fill:#000000;fill-opacity:1;stroke:none;stroke-width:2.5;stroke-miterlimit:4;stroke-dasharray:5, 2.5, 1.25, 2.5;stroke-dashoffset:0;stroke-opacity:1;paint-order:normal"
         id="path114"
         d="m 232.04292,387.90326 h -11.957 v 59.74 h 11.957 v -59.74"
         stroke-linejoin="miter"
         stroke="rgb(13, 69, 7)"
         stroke-opacity="1.0"
         stroke-linecap="butt"
         stroke-width="0.20000004768371582"
         fill="none" />
      <path
         style="fill:#000000;fill-opacity:1;stroke:none;stroke-width:2.5;stroke-miterlimit:4;stroke-dasharray:5, 2.5, 1.25, 2.5;stroke-dashoffset:0;stroke-opacity:1;paint-order:normal"
         id="path116"
         d="m 238.33292,399.86026 v -11.957 h 23.892 23.892 v 11.957 h -17.914 v 47.783 h -11.915 v -47.783 h -17.955"
         stroke-linejoin="miter"
         stroke="rgb(13, 69, 7)"
         stroke-opacity="1.0"
         stroke-linecap="butt"
         stroke-width="0.20000004768371582"
         fill="none" />
      <path
         inkscape:export-ydpi="28.572332"
         inkscape:export-xdpi="28.572332"
         d="M 400.93359 36.394531 L 387.10742 51.755859 L 384.80078 54.363281 L 382.41406 57.068359 L 379.94922 59.867188 L 377.4043 62.763672 L 374.7793 65.755859 L 372.07617 68.845703 L 369.29492 72.029297 L 366.43164 75.308594 L 363.49023 78.685547 L 360.4707 82.15625 L 357.37109 85.726562 L 354.19141 89.390625 L 351.0293 93.044922 L 347.98047 96.585938 L 345.04492 100.01172 L 342.2207 103.32422 L 339.50977 106.52148 L 336.91016 109.60547 L 334.42578 112.57422 L 332.05273 115.43164 L 329.79297 118.17188 L 327.64453 120.79883 L 325.61133 123.31055 L 323.68945 125.70703 L 321.35938 128.6582 L 319.1543 131.5 L 317.07227 134.23242 L 315.10742 136.84961 L 313.25586 139.35156 L 311.51367 141.73242 L 309.87891 143.99219 L 308.3457 146.12891 L 306.91211 148.13477 L 305.57617 150.00977 L 304.32812 151.75195 L 303.17188 153.35742 L 302.04102 154.91797 L 300.88281 156.52148 L 299.69336 158.17188 L 298.47852 159.86719 L 297.23242 161.60938 L 295.95703 163.39648 L 294.65234 165.23047 L 293.32031 167.10938 L 291.95898 169.0332 L 290.56836 171.00391 L 289.14844 173.02148 L 287.69922 175.08203 L 286.27344 177.12891 L 284.91797 179.09375 L 283.63477 180.98047 L 282.42188 182.78711 L 281.28125 184.51562 L 280.21289 186.16406 L 279.21484 187.73438 L 278.28906 189.22461 L 277.43555 190.63477 L 276.65234 191.9668 L 275.94141 193.2207 L 275.30273 194.39258 L 274.69141 195.54297 L 274.07031 196.72266 L 273.4375 197.93164 L 272.78906 199.17188 L 272.13281 200.44336 L 271.46289 201.74414 L 270.7793 203.07617 L 270.08398 204.43945 L 269.37695 205.83203 L 268.6582 207.25586 L 267.92578 208.70898 L 267.18164 210.19336 L 266.45312 211.67969 L 265.76562 213.13867 L 265.11719 214.56836 L 264.51367 215.97266 L 263.94727 217.34766 L 263.42578 218.69727 L 262.94141 220.01758 L 262.50195 221.3125 L 262.10156 222.57812 L 261.74219 223.81641 L 261.42383 225.0293 L 261.14844 226.21289 L 260.89453 227.39062 L 260.64844 228.58398 L 260.40625 229.79297 L 260.17383 231.01562 L 259.94336 232.25586 L 259.7207 233.50977 L 259.50586 234.7793 L 259.29492 236.0625 L 259.0918 237.36328 L 258.89258 238.67773 L 258.69922 240.00977 L 258.51367 241.35352 L 258.33984 242.71875 L 258.17969 244.10352 L 258.0332 245.50977 L 257.9043 246.9375 L 257.79102 248.38672 L 257.69141 249.85742 L 257.60742 251.34961 L 257.53906 252.86328 L 257.48633 254.39648 L 257.44727 255.95312 L 257.42578 257.53125 L 257.41797 259.12891 L 257.46875 262.63086 L 257.61719 266.10938 L 257.86914 269.56641 L 258.22266 273.00391 L 258.67383 276.41797 L 259.22852 279.8125 L 259.88086 283.18359 L 260.63672 286.53516 L 261.49023 289.86523 L 262.44531 293.17383 L 263.50195 296.46094 L 264.6582 299.72656 L 265.90625 302.95117 L 267.23633 306.11719 L 268.65039 309.22461 L 270.14453 312.27148 L 271.72266 315.25977 L 273.38281 318.1875 L 275.12305 321.05664 L 276.94727 323.86523 L 278.85352 326.61523 L 280.84375 329.30469 L 282.91406 331.93555 L 285.06641 334.50781 L 287.3125 337.00781 L 289.65625 339.42188 L 292.10352 341.75 L 294.64844 343.99219 L 297.29688 346.15039 L 300.04492 348.22266 L 302.89258 350.21094 L 305.8418 352.11133 L 308.89062 353.92969 L 312.03906 355.66016 L 315.29102 357.30664 L 318.64258 358.86523 L 322.07031 360.32031 L 325.55469 361.64844 L 329.09375 362.84961 L 332.68555 363.92578 L 336.33594 364.87305 L 340.03711 365.69531 L 343.79688 366.39258 L 347.60742 366.96094 L 351.47656 367.4043 L 355.39844 367.7207 L 359.37695 367.91016 L 363.4082 367.97266 L 370.90625 367.76367 L 378.18359 367.13867 L 385.24219 366.09375 L 392.08203 364.63281 L 398.70117 362.75391 L 405.10352 360.45703 L 411.2832 357.74219 L 417.24414 354.61133 L 422.98633 351.0625 L 428.50977 347.0957 L 433.8125 342.71094 L 438.89648 337.9082 L 443.66406 332.8125 L 448.01562 327.54688 L 451.95312 322.10938 L 455.47656 316.50195 L 458.58594 310.72266 L 461.2793 304.77344 L 463.56055 298.65234 L 465.42578 292.36328 L 466.87695 285.90039 L 467.91211 279.26953 L 468.5332 272.4668 L 468.74023 265.49219 L 468.68555 261.92383 L 468.52148 258.38281 L 468.24609 254.87109 L 467.86328 251.38867 L 467.36914 247.93359 L 466.76562 244.50977 L 466.05273 241.11328 L 465.23047 237.74609 L 464.29688 234.4082 L 463.25586 231.09766 L 462.10352 227.81836 L 460.8418 224.56641 L 459.48828 221.36914 L 458.06055 218.25586 L 456.5625 215.2207 L 454.98828 212.26562 L 453.34375 209.39258 L 451.62305 206.59961 L 449.83203 203.88867 L 447.9668 201.25781 L 446.0293 198.70703 L 444.01758 196.23633 L 441.93164 193.84961 L 439.77539 191.54102 L 437.55078 189.3125 L 435.26367 187.16016 L 432.91797 185.08789 L 430.50977 183.0918 L 428.03906 181.17383 L 425.51172 179.33398 L 422.91992 177.57227 L 420.26758 175.88672 L 417.55664 174.2793 L 414.78125 172.75195 L 411.94727 171.29883 L 409.05273 169.92578 L 406.0957 168.62695 L 403.07812 167.4043 L 400.01367 166.26562 L 396.9043 165.21484 L 393.76367 164.25781 L 390.59375 163.39844 L 387.4082 162.64648 L 384.21094 162.00391 L 381.01172 161.47852 L 377.81836 161.07422 L 374.63867 160.79883 L 371.48047 160.65625 L 368.72461 160.60547 L 366.07812 160.58008 L 363.5293 160.58789 L 361.06445 160.625 L 358.66992 160.69336 L 356.33398 160.79883 L 354.04297 160.9375 L 351.78125 161.11523 L 349.54102 161.33008 L 347.30664 161.58594 L 345.0625 161.88281 L 342.80078 162.22266 L 341.08594 162.52734 L 339.29688 162.9082 L 337.44922 163.35938 L 335.56445 163.87891 L 333.66016 164.46094 L 331.75391 165.09961 L 329.86328 165.79102 L 328.00977 166.53125 L 326.20898 167.31641 L 324.48242 168.13867 L 322.8457 168.99609 L 321.32031 169.88672 L 362.71094 119.50781 L 404.10156 69.130859 L 419.41992 50.484375 L 418.28711 49.576172 L 416.97656 48.544922 L 415.51953 47.408203 L 413.94531 46.195312 L 412.28711 44.927734 L 410.57617 43.626953 L 408.84375 42.3125 L 407.11914 41.013672 L 405.43555 39.748047 L 403.82227 38.542969 L 402.31055 37.416016 L 400.93359 36.394531 z M 362.70703 185.49609 L 364.06641 185.53516 L 367.59961 185.75391 L 371.16797 186.04297 L 374.75977 186.41406 L 378.35352 186.88672 L 381.93359 187.47461 L 385.48438 188.18945 L 388.98828 189.05078 L 392.42969 190.07031 L 395.78711 191.26367 L 399.05078 192.64648 L 402.19727 194.23438 L 405.21289 196.03906 L 408.0957 198.00586 L 410.85352 200.06445 L 413.48828 202.21875 L 416.00195 204.46289 L 418.39062 206.80273 L 420.65625 209.23242 L 422.79688 211.75781 L 424.81641 214.375 L 426.71094 217.08594 L 428.48242 219.88867 L 430.13086 222.78516 L 431.6543 225.77344 L 433.05664 228.83398 L 434.33789 231.94336 L 435.49414 235.09961 L 436.53125 238.30664 L 437.44531 241.5625 L 438.23828 244.86523 L 438.9082 248.21875 L 439.45703 251.61914 L 439.88477 255.06836 L 440.18945 258.56836 L 440.37109 262.11523 L 440.43359 265.71289 L 440.2832 270.85156 L 439.83203 275.88281 L 439.08203 280.80664 L 438.03125 285.62109 L 436.67969 290.32617 L 435.0293 294.92578 L 433.07812 299.41602 L 430.82617 303.79883 L 428.27344 308.07227 L 425.42188 312.23633 L 422.26953 316.29492 L 418.81836 320.24414 L 418.21094 320.88867 L 417.59375 321.52344 L 416.96484 322.15039 L 416.32422 322.76953 L 415.67383 323.37695 L 415.01172 323.97656 L 414.33984 324.56836 L 413.65625 325.14844 L 412.96484 325.72266 L 412.26172 326.28516 L 411.54883 326.83984 L 410.82617 327.38477 L 410.06055 327.95117 L 409.22266 328.56641 L 408.31445 329.21875 L 407.34766 329.90625 L 406.32422 330.61914 L 405.25391 331.35352 L 404.14062 332.09961 L 402.99219 332.85156 L 401.8125 333.60352 L 400.60938 334.34766 L 399.39062 335.07617 L 398.16016 335.7832 L 397.00391 336.43164 L 395.97852 336.99414 L 395.05273 337.48633 L 394.19922 337.92188 L 393.38477 338.3125 L 392.57812 338.67383 L 391.75 339.01953 L 390.86719 339.36328 L 389.9043 339.71875 L 388.82422 340.09961 L 387.59961 340.51758 L 386.19922 340.99023 L 384.75781 341.44727 L 383.41406 341.81641 L 382.14453 342.10938 L 380.91992 342.33594 L 379.71484 342.50781 L 378.50586 342.63672 L 377.26758 342.73242 L 375.9707 342.80664 L 374.59375 342.86914 L 373.10742 342.93164 L 371.48828 343.00781 L 369.71094 343.10352 L 369.72461 277.90234 L 369.72461 275.91797 L 370.67188 275.79492 L 371.62109 275.5 L 372.55664 275.04688 L 373.46289 274.44336 L 374.32422 273.70117 L 375.12305 272.83203 L 375.8457 271.8457 L 376.47461 270.75195 L 376.99414 269.56055 L 377.38867 268.28516 L 377.64062 266.93555 L 377.73633 265.51953 L 377.63867 263.92188 L 377.33203 262.39062 L 376.83008 260.9375 L 376.15039 259.57617 L 375.30273 258.32422 L 374.30469 257.19336 L 373.16992 256.19727 L 371.91211 255.35156 L 370.54883 254.66992 L 369.0918 254.16406 L 367.55664 253.84961 L 365.95898 253.74219 L 364.36133 253.84961 L 362.83008 254.16406 L 361.37695 254.66992 L 360.01953 255.35156 L 358.76758 256.19727 L 357.63672 257.19336 L 356.64258 258.32422 L 355.79688 259.57617 L 355.11328 260.9375 L 354.60742 262.39062 L 354.29297 263.92188 L 354.18164 265.51953 L 354.25977 266.92969 L 354.49023 268.24805 L 354.86133 269.47266 L 355.35547 270.60352 L 355.96094 271.63281 L 356.66016 272.56055 L 357.44336 273.38477 L 358.29297 274.10156 L 359.19531 274.70703 L 360.13672 275.20117 L 361.10352 275.58008 L 362.07812 275.8418 L 362.16992 341.04102 L 362.17383 343.12305 L 360.90234 343.10156 L 359.52539 343.04688 L 358.05859 342.96094 L 356.52344 342.8457 L 354.94336 342.70312 L 353.33594 342.53516 L 351.71875 342.34375 L 350.11719 342.13086 L 348.54883 341.89844 L 347.0332 341.64844 L 345.59375 341.38086 L 344.24609 341.09961 L 344.26562 337.35547 L 344.28516 333.50195 L 344.30469 329.57422 L 344.32227 325.61133 L 344.3418 321.64844 L 344.36133 317.72266 L 344.38086 313.86719 L 344.40039 310.12305 L 344.41992 306.52539 L 344.43945 303.10938 L 344.45703 299.91406 L 344.47656 296.97461 L 355.52148 279.97852 L 344.45117 282.77734 L 344.47852 274.29102 L 344.50391 265.9668 L 344.5293 257.78711 L 344.55664 249.73633 L 344.58008 241.79297 L 344.60742 233.94141 L 344.63281 226.16211 L 344.6582 218.43945 L 344.68359 210.75586 L 344.71094 203.08984 L 344.73633 195.42773 L 344.76172 187.75 L 345.78711 187.41992 L 347.06836 187.09961 L 348.56445 186.79883 L 350.22656 186.51953 L 352.00977 186.26367 L 353.86914 186.03711 L 355.75781 185.8457 L 357.63281 185.69141 L 359.44531 185.58008 L 361.15234 185.51367 L 362.70703 185.49609 z M 336.57422 189.48242 L 336.58203 197.03906 L 336.5918 204.58008 L 336.59961 212.11914 L 336.60938 219.67578 L 336.61719 227.26562 L 336.62695 234.9043 L 336.63477 242.61133 L 336.64258 250.40234 L 336.65234 258.29297 L 336.66016 266.30078 L 336.66992 274.44336 L 336.67773 282.73828 L 325.82422 279.89453 L 337.04688 296.95703 L 337.0293 299.74023 L 337.01172 302.77734 L 336.99219 306.03516 L 336.97461 309.47656 L 336.95703 313.0625 L 336.93945 316.75977 L 336.92188 320.52734 L 336.90234 324.33398 L 336.88477 328.13867 L 336.86523 331.9082 L 336.84766 335.60547 L 336.83008 339.19141 L 335.70312 338.78711 L 334.44727 338.29883 L 333.08789 337.73633 L 331.6543 337.11328 L 330.17773 336.44141 L 328.68164 335.73633 L 327.19727 335.00781 L 325.75195 334.26758 L 324.375 333.53125 L 323.09375 332.80859 L 321.93555 332.11523 L 320.93164 331.46289 L 320.95117 326.56641 L 320.9707 321.56055 L 320.98828 316.48047 L 321.00977 311.36523 L 321.02734 306.25 L 321.04688 301.17188 L 321.06641 296.16406 L 321.08594 291.26953 L 321.10547 286.51953 L 321.12305 281.95117 L 321.14258 277.60352 L 321.16211 273.51172 L 332.20703 256.51758 L 321.13867 259.31445 L 321.16406 253.76953 L 321.18945 248.71289 L 321.21484 244.01367 L 321.24023 239.54492 L 321.26758 235.17578 L 321.29297 230.7793 L 321.31836 226.22852 L 321.34375 221.39453 L 321.36914 216.15039 L 321.39648 210.36328 L 321.42188 203.91016 L 321.44727 196.66016 L 322.45117 196.00781 L 323.58594 195.33203 L 324.82031 194.64453 L 326.13672 193.95117 L 327.50586 193.26562 L 328.90625 192.5957 L 330.31055 191.95312 L 331.69922 191.3457 L 333.04297 190.78516 L 334.32031 190.28125 L 335.50586 189.84375 L 336.57422 189.48242 z M 313.25977 200.74219 L 313.26953 207.84961 L 313.27734 214.10938 L 313.28516 219.6582 L 313.29492 224.62695 L 313.30273 229.14453 L 313.3125 233.3457 L 313.32031 237.36133 L 313.32812 241.32422 L 313.33789 245.36523 L 313.3457 249.61523 L 313.35352 254.20898 L 313.36328 259.27539 L 302.50977 256.43164 L 313.73242 273.49414 L 313.71484 277.24023 L 313.69727 281.24219 L 313.67969 285.46484 L 313.66016 289.86914 L 313.64258 294.41992 L 313.62305 299.07812 L 313.60547 303.8125 L 313.58789 308.58008 L 313.57031 313.35156 L 313.55273 318.08398 L 313.5332 322.74414 L 313.51562 327.29492 L 311.96094 326.14062 L 310.3457 324.8125 L 308.69141 323.33984 L 307.02344 321.75781 L 305.36523 320.09375 L 303.74023 318.38086 L 302.17383 316.64844 L 300.6875 314.93359 L 299.30664 313.26172 L 298.05469 311.66602 L 296.95312 310.17969 L 296.02734 308.83008 L 296.67773 243.63477 L 296.95703 215.63086 L 297.91016 214.48633 L 299.03125 213.23438 L 300.28711 211.9043 L 301.6543 210.52344 L 303.10547 209.11328 L 304.60938 207.70508 L 306.14258 206.32422 L 307.67578 204.99609 L 309.17969 203.74609 L 310.63086 202.60352 L 312 201.59375 L 313.25977 200.74219 z "
         style="fill:#000000;fill-opacity:1;stroke:none;stroke-opacity:1;stroke-width:2.5;stroke-miterlimit:4;stroke-dasharray:5, 2.50000000000000000, 1.25000000000000000, 2.50000000000000000;stroke-dashoffset:0;paint-order:normal"
         id="path118" />
      <path
         d="m 292.4494,387.90368 v 59.74024 h 11.95508 v -11.95704 l 13.37305,-0.084 5.20703,12.04102 h 12.70703 l -6.625,-15.62305 0.42774,-0.27539 0.41992,-0.28125 0.41406,-0.29102 0.40625,-0.30078 0.39844,-0.30664 0.39258,-0.31641 0.38476,-0.32226 0.37891,-0.33203 0.37109,-0.33789 0.36524,-0.34961 0.35742,-0.35547 0.34961,-0.36328 0.34375,-0.3711 0.33398,-0.37695 0.32422,-0.38281 0.31445,-0.38867 0.3086,-0.39258 0.29687,-0.40039 0.28906,-0.40625 0.28126,-0.41016 0.26953,-0.41797 0.26171,-0.42187 0.25196,-0.42969 0.24414,-0.43359 0.23633,-0.44141 0.22461,-0.44141 0.21679,-0.44921 0.20899,-0.45118 0.19531,-0.45507 0.18945,-0.46094 0.17969,-0.46289 0.16992,-0.4668 0.16016,-0.47266 0.15234,-0.47656 0.14258,-0.47851 0.13281,-0.48438 0.12305,-0.48828 0.11328,-0.48828 0.10156,-0.49219 0.0918,-0.49414 0.0801,-0.49609 0.0684,-0.5 0.0586,-0.5 0.0488,-0.50391 0.0371,-0.50586 0.0273,-0.50781 0.0156,-0.50977 0.006,-0.51367 -0.006,-0.54687 -0.0195,-0.54297 -0.0274,-0.53907 -0.043,-0.5371 -0.0527,-0.53321 -0.0645,-0.52929 -0.0781,-0.5254 -0.0898,-0.52343 -0.0996,-0.51758 -0.11328,-0.51758 -0.125,-0.51172 -0.13672,-0.50781 -0.14649,-0.50391 -0.15625,-0.5 -0.16796,-0.49218 -0.17579,-0.49024 -0.1875,-0.48242 -0.19531,-0.47852 -0.20703,-0.47265 -0.2168,-0.46875 -0.22461,-0.46094 -0.23632,-0.45898 -0.2461,-0.45118 -0.25586,-0.44726 -0.26367,-0.44141 -0.27344,-0.43359 -0.28125,-0.42774 -0.29101,-0.42187 -0.30078,-0.41406 -0.3086,-0.40821 -0.3164,-0.40039 -0.32422,-0.39453 -0.33399,-0.38867 -0.34375,-0.38086 -0.35156,-0.375 -0.36133,-0.36719 -0.36523,-0.35937 -0.375,-0.35352 -0.38086,-0.34179 -0.38672,-0.33399 -0.39258,-0.32617 -0.40039,-0.31641 -0.40625,-0.30859 -0.41211,-0.29883 -0.41797,-0.29101 -0.42578,-0.28125 -0.42969,-0.27344 -0.43945,-0.26367 -0.44336,-0.25782 -0.44922,-0.24414 -0.45312,-0.23633 -0.46094,-0.22656 -0.46484,-0.21484 -0.47266,-0.20703 -0.47656,-0.19531 -0.48242,-0.1875 -0.48633,-0.17579 -0.49414,-0.16797 -0.49805,-0.15624 -0.50391,-0.14844 -0.50781,-0.13672 -0.51367,-0.125 -0.51562,-0.11133 -0.51758,-0.10156 -0.52344,-0.0879 -0.52539,-0.0781 -0.5293,-0.0645 -0.5332,-0.0547 -0.53711,-0.041 -0.53906,-0.0293 -0.54297,-0.0176 -0.54688,-0.006 z m 11.95508,11.95703 h 11.95703 l 0.40821,0.006 0.40234,0.0195 0.40039,0.0312 0.39453,0.0469 0.39258,0.0586 0.38672,0.0723 0.38281,0.084 0.37891,0.0977 0.375,0.11133 0.37109,0.12304 0.36719,0.13672 0.36328,0.15039 0.35742,0.16016 0.34961,0.16992 0.34375,0.18164 0.33399,0.1875 0.32812,0.19922 0.31836,0.20899 0.3125,0.21874 0.30469,0.22852 0.29687,0.23828 0.29102,0.2461 0.28125,0.25586 0.27344,0.26562 0.26562,0.27539 0.25781,0.28125 0.2461,0.29102 0.23828,0.29882 0.22656,0.30664 0.21875,0.3125 0.20899,0.32227 0.19921,0.32813 0.18946,0.33789 0.17968,0.34375 0.17188,0.35351 0.16016,0.36133 0.15039,0.36523 0.13672,0.3711 0.12304,0.37305 0.11133,0.3789 0.0977,0.38086 0.084,0.38672 0.0723,0.38867 0.0586,0.39063 0.0449,0.39843 0.0332,0.39844 0.0195,0.4043 0.006,0.4082 -0.006,0.4082 -0.0195,0.4043 -0.0332,0.40039 -0.0449,0.39649 -0.0586,0.39257 -0.0723,0.38868 -0.084,0.38476 -0.0977,0.38281 -0.11133,0.37696 -0.12304,0.37304 -0.13672,0.3711 -0.15039,0.36523 -0.16016,0.36133 -0.17188,0.35352 -0.17968,0.34375 -0.18946,0.33789 -0.19921,0.33007 -0.20899,0.32032 -0.21875,0.31445 -0.22656,0.30469 -0.23828,0.29883 -0.2461,0.29101 -0.25781,0.28125 -0.26562,0.27539 -0.27344,0.26563 -0.28125,0.25586 -0.29102,0.24804 -0.29687,0.23829 -0.30469,0.22656 -0.3125,0.21875 -0.31836,0.20898 -0.32812,0.19922 -0.33399,0.18945 -0.34375,0.17969 -0.34961,0.17188 -0.35742,0.16015 -0.52344,0.14453 -0.82031,0.1211 -1.07812,0.0996 -1.28907,0.0859 -1.46093,0.0723 -1.58594,0.0625 -1.67188,0.0566 -1.71679,0.0508 -1.71485,0.0527 -1.67187,0.0566 -1.58594,0.0625 -1.46094,0.0723 z"
         style="fill:#000000;fill-opacity:1;stroke:none;stroke-width:2.5;stroke-miterlimit:4;stroke-dasharray:5, 2.5, 1.25, 2.5;stroke-dashoffset:0;stroke-opacity:1;paint-order:normal"
         id="path126" />
      <path
         d="m 375.72675,387.15368 -0.70703,0.008 -0.70118,0.0234 -0.69726,0.0391 -0.69336,0.0527 -0.68945,0.0684 -0.6836,0.0859 -0.67968,0.0976 -0.67579,0.11524 -0.67187,0.13086 -0.66602,0.14453 -0.66406,0.16211 -0.6582,0.17773 -0.65235,0.18945 -0.64648,0.20118 -0.63672,0.21484 -0.63281,0.22852 -0.625,0.24023 -0.61719,0.25195 -0.61133,0.26563 -0.60351,0.27734 -0.59766,0.28906 -0.58984,0.30274 -0.58399,0.31445 -0.57617,0.32617 -0.56836,0.33985 -0.56054,0.35156 -0.55274,0.36133 -0.54297,0.37304 -0.53515,0.38672 -0.52735,0.39649 -0.51758,0.4082 -0.50976,0.41992 -0.5,0.43164 -0.49414,0.44336 -0.48438,0.45508 -0.47656,0.4668 -0.4668,0.47461 -0.45507,0.48437 -0.44336,0.49219 -0.4336,0.50195 -0.42187,0.50782 -0.40821,0.51757 -0.40039,0.52344 -0.38672,0.5332 -0.37695,0.54102 -0.36523,0.54883 -0.35352,0.55664 -0.3418,0.5664 -0.33007,0.57422 -0.31836,0.58008 -0.30469,0.58789 -0.29297,0.59571 -0.2793,0.60351 -0.26562,0.60938 -0.25391,0.61914 -0.24219,0.625 -0.22851,0.63281 -0.21484,0.64258 -0.20313,0.64648 -0.19141,0.65625 -0.17578,0.66211 -0.16211,0.66602 -0.14453,0.66992 -0.13086,0.67383 -0.11523,0.67773 -0.0996,0.68164 -0.084,0.68555 -0.0684,0.6914 -0.0547,0.69336 -0.0371,0.69727 -0.0234,0.70312 -0.008,0.70508 0.008,0.70703 0.0234,0.70118 0.0371,0.69726 0.0547,0.69336 0.0684,0.68945 0.084,0.6836 0.0996,0.67968 0.11523,0.67579 0.13086,0.67187 0.14453,0.66602 0.16211,0.66406 0.17578,0.65625 0.19141,0.6543 0.20313,0.64648 0.21484,0.63672 0.22851,0.63281 0.24219,0.625 0.25391,0.61719 0.26562,0.61133 0.2793,0.60351 0.29297,0.59766 0.30469,0.58984 0.31836,0.58399 0.33007,0.57617 0.3418,0.56836 0.35352,0.56055 0.36523,0.55273 0.37695,0.54297 0.38672,0.53516 0.40039,0.52539 0.40821,0.51953 0.42187,0.50976 0.4336,0.5 0.44336,0.49414 0.45507,0.48438 0.4668,0.47656 0.47656,0.4668 0.48438,0.45508 0.49414,0.44336 0.5,0.43359 0.50976,0.41992 0.51758,0.41016 0.52735,0.40039 0.53515,0.38672 0.54297,0.37695 0.55274,0.36523 0.56054,0.35352 0.56836,0.3418 0.57617,0.33007 0.58399,0.31836 0.58984,0.30469 0.59766,0.29102 0.60351,0.28125 0.61133,0.26562 0.61719,0.25391 0.625,0.24219 0.63281,0.22851 0.63672,0.21484 0.64648,0.20313 0.65235,0.18945 0.6582,0.17774 0.66406,0.16015 0.66602,0.14649 0.67187,0.13086 0.67579,0.11523 0.67968,0.0977 0.6836,0.0859 0.68945,0.0684 0.69336,0.0527 0.69726,0.0391 0.70118,0.0234 0.70703,0.008 0.70508,-0.008 0.70117,-0.0234 0.69922,-0.0391 0.69336,-0.0527 0.68945,-0.0684 0.6875,-0.0859 0.68164,-0.0977 0.67773,-0.11523 0.67383,-0.13086 0.66992,-0.14649 0.66602,-0.16015 0.66211,-0.17774 0.6543,-0.18945 0.64843,-0.20313 0.64063,-0.21484 0.63281,-0.22851 0.62695,-0.24219 0.61719,-0.25391 0.61133,-0.26562 0.60352,-0.28125 0.5957,-0.29102 0.58789,-0.30469 0.58008,-0.31836 0.57422,-0.33007 0.56445,-0.3418 0.55859,-0.35352 0.54883,-0.36523 0.54102,-0.37695 0.53125,-0.38672 0.52539,-0.40039 0.51562,-0.41016 0.50977,-0.41992 0.50195,-0.43359 0.49219,-0.44336 0.48242,-0.45508 0.47656,-0.4668 0.4668,-0.47656 0.45508,-0.48438 0.44336,-0.49414 0.43164,-0.5 0.41992,-0.50976 0.4082,-0.51953 0.39649,-0.52539 0.38476,-0.53516 0.375,-0.54297 0.36133,-0.55273 0.35156,-0.56055 0.33985,-0.56836 0.32617,-0.57617 0.31445,-0.58399 0.30274,-0.58984 0.28906,-0.59766 0.27734,-0.60351 0.26563,-0.61133 0.25195,-0.61719 0.24024,-0.625 0.22656,-0.63281 0.2168,-0.63672 0.20117,-0.64648 0.1914,-0.6543 0.17578,-0.65625 0.16016,-0.66406 0.14649,-0.66602 0.13085,-0.67187 0.11524,-0.67579 0.0977,-0.67968 0.0859,-0.6836 0.0684,-0.68945 0.0527,-0.69336 0.0391,-0.69726 0.0234,-0.70118 0.008,-0.70703 -0.008,-0.70508 -0.0234,-0.70312 -0.0391,-0.69727 -0.0527,-0.69336 -0.0684,-0.6914 -0.0859,-0.68555 -0.0977,-0.68164 -0.11524,-0.67773 -0.13085,-0.67383 -0.14649,-0.66992 -0.16016,-0.66602 -0.17578,-0.66211 -0.1914,-0.65625 -0.20117,-0.64648 -0.2168,-0.64258 -0.22656,-0.63281 -0.24024,-0.625 -0.25195,-0.61914 -0.26563,-0.60938 -0.27734,-0.60351 -0.28906,-0.59571 -0.30274,-0.58789 -0.31445,-0.58008 -0.32617,-0.57422 -0.33985,-0.5664 -0.35156,-0.55664 -0.36133,-0.54883 -0.375,-0.54102 -0.38476,-0.5332 -0.39649,-0.52344 -0.4082,-0.51757 -0.41992,-0.50782 -0.43164,-0.50195 -0.44336,-0.49219 -0.45508,-0.48437 -0.4668,-0.47461 -0.47656,-0.4668 -0.48242,-0.45508 -0.49219,-0.44336 -0.50195,-0.43164 -0.50977,-0.41992 -0.51562,-0.4082 -0.52539,-0.39649 -0.53125,-0.38672 -0.54102,-0.37304 -0.54883,-0.36133 -0.55859,-0.35156 -0.56445,-0.33985 -0.57422,-0.32617 -0.58008,-0.31445 -0.58789,-0.30274 -0.5957,-0.28906 -0.60352,-0.27734 -0.61133,-0.26563 -0.61719,-0.25195 -0.62695,-0.24023 -0.63281,-0.22852 -0.64063,-0.21484 -0.64843,-0.20118 -0.6543,-0.18945 -0.66211,-0.17773 -0.66602,-0.16211 -0.66992,-0.14453 -0.67383,-0.13086 -0.67773,-0.11524 -0.68164,-0.0976 -0.6875,-0.0859 -0.68945,-0.0684 -0.69336,-0.0527 -0.69922,-0.0391 -0.70117,-0.0234 z m 0,11.87305 0.64844,0.01 0.64453,0.0312 0.63672,0.0527 0.63086,0.0723 0.625,0.0937 0.61914,0.11524 0.61523,0.13476 0.60547,0.15625 0.60156,0.17774 0.5957,0.19726 0.5879,0.21875 0.58203,0.24024 0.57421,0.25781 0.56055,0.27149 0.54688,0.28711 0.53711,0.30078 0.52148,0.3164 0.50977,0.33008 0.49804,0.34766 0.48438,0.35937 0.4707,0.375 0.45899,0.39063 0.44726,0.40429 0.43164,0.42188 0.41992,0.43164 0.40625,0.44727 0.38868,0.45898 0.375,0.4707 0.36132,0.48438 0.34571,0.49609 0.33203,0.51172 0.3164,0.52148 0.30079,0.53516 0.2871,0.54883 0.27149,0.56055 0.25781,0.57226 0.23828,0.58203 0.22071,0.58985 0.19726,0.5957 0.17774,0.59961 0.15429,0.60742 0.13672,0.61524 0.11328,0.61718 0.0957,0.625 0.0723,0.63282 0.0527,0.63671 0.0293,0.64453 0.0117,0.64844 -0.0117,0.65039 -0.0293,0.64258 -0.0527,0.63477 -0.0723,0.63086 -0.0957,0.62109 -0.11328,0.61719 -0.13672,0.60937 -0.15429,0.60352 -0.17774,0.5957 -0.19726,0.58985 -0.22071,0.58203 -0.23828,0.57617 -0.25781,0.5664 -0.27149,0.55469 -0.2871,0.54297 -0.30079,0.53125 -0.3164,0.52149 -0.33203,0.50585 -0.34571,0.4961 -0.36132,0.48437 -0.375,0.47266 -0.38868,0.45898 -0.40625,0.44727 -0.41992,0.4375 -0.43164,0.42383 -0.44726,0.4082 -0.45899,0.39258 -0.4707,0.37695 -0.48438,0.36328 -0.49804,0.34766 -0.50977,0.33203 -0.52148,0.31836 -0.53711,0.30273 -0.54688,0.28711 -0.56055,0.27344 -0.57421,0.25586 -0.58203,0.24024 -0.5879,0.21874 -0.5957,0.19922 -0.60156,0.17578 -0.60547,0.15626 -0.61328,0.13476 -0.62109,0.11524 -0.625,0.0937 -0.63086,0.0723 -0.63672,0.0527 -0.64453,0.0313 -0.64844,0.01 -0.65625,-0.01 -0.65039,-0.0313 -0.64258,-0.0527 -0.63477,-0.0723 -0.62695,-0.0937 -0.62305,-0.11524 -0.61328,-0.13476 -0.60937,-0.15626 -0.59961,-0.17578 -0.59375,-0.19922 -0.58594,-0.21874 -0.58008,-0.24024 -0.57031,-0.25586 -0.55859,-0.27344 -0.54688,-0.28711 -0.53125,-0.30273 -0.52344,-0.31836 -0.50976,-0.33203 -0.4961,-0.34766 -0.48632,-0.36328 -0.47266,-0.37695 -0.46094,-0.39258 -0.44922,-0.4082 -0.43554,-0.42383 -0.42188,-0.4375 -0.4082,-0.44727 -0.39453,-0.45898 -0.37696,-0.47266 -0.36132,-0.48437 -0.34961,-0.4961 -0.33203,-0.50585 -0.31836,-0.52149 -0.30274,-0.53125 -0.28711,-0.54297 -0.27148,-0.55469 -0.25781,-0.5664 -0.24024,-0.57617 -0.21875,-0.58203 -0.19726,-0.58985 -0.17774,-0.5957 -0.15625,-0.60352 -0.13476,-0.60937 -0.11524,-0.61719 -0.0937,-0.62109 -0.0723,-0.63086 -0.0527,-0.63477 -0.0312,-0.64258 -0.01,-0.65039 0.01,-0.64844 0.0312,-0.64453 0.0527,-0.63671 0.0723,-0.63282 0.0937,-0.625 0.11524,-0.61718 0.13476,-0.61524 0.15625,-0.60742 0.17774,-0.59961 0.19726,-0.5957 0.21875,-0.58985 0.24024,-0.58203 0.25781,-0.57226 0.27148,-0.56055 0.28711,-0.54883 0.30274,-0.53516 0.31836,-0.52148 0.33203,-0.51172 0.34961,-0.49609 0.36132,-0.48438 0.37696,-0.4707 0.39453,-0.45898 0.4082,-0.44727 0.42188,-0.43164 0.43554,-0.42188 0.44922,-0.40429 0.46094,-0.39063 0.47266,-0.375 0.48632,-0.35937 0.4961,-0.34766 0.50976,-0.33008 0.52344,-0.3164 0.53125,-0.30078 0.54688,-0.28711 0.55859,-0.27149 0.57031,-0.25781 0.58008,-0.24024 0.58594,-0.21875 0.59375,-0.19726 0.59961,-0.17774 0.60937,-0.15625 0.61328,-0.13476 0.62305,-0.11524 0.62695,-0.0937 0.63477,-0.0723 0.64258,-0.0527 0.65039,-0.0312 z"
         style="fill:#000000;fill-opacity:1;stroke:none;stroke-width:2.5;stroke-miterlimit:4;stroke-dasharray:5, 2.5, 1.25, 2.5;stroke-dashoffset:0;stroke-opacity:1;paint-order:normal"
         id="path130" />
      <path
         inkscape:export-ydpi="28.572332"
         inkscape:export-xdpi="28.572332"
         style="fill:#000000;fill-opacity:1;stroke:none;stroke-width:2.5;stroke-miterlimit:4;stroke-dasharray:5, 2.5, 1.25, 2.5;stroke-dashoffset:0;stroke-opacity:1;paint-order:normal"
         id="path134"
         d="m 427.21692,387.90326 h -12.79 v 59.74 h 11.957 v -39.327 l 23.037,39.327 h 12.79 v -59.74 h -11.956 v 39.369 l -23.038,-39.369"
         stroke-linejoin="miter"
         stroke="rgb(13, 69, 7)"
         stroke-opacity="1.0"
         stroke-linecap="butt"
         stroke-width="0.20000004768371582"
         fill="none" />
    </g>
  </g>
</svg>
