<?xml version="1.0" encoding="UTF-8" standalone="no"?>
<svg
   xmlns:dc="http://purl.org/dc/elements/1.1/"
   xmlns:cc="http://creativecommons.org/ns#"
   xmlns:rdf="http://www.w3.org/1999/02/22-rdf-syntax-ns#"
   xmlns:svg="http://www.w3.org/2000/svg"
   xmlns="http://www.w3.org/2000/svg"
   xmlns:sodipodi="http://sodipodi.sourceforge.net/DTD/sodipodi-0.dtd"
   xmlns:inkscape="http://www.inkscape.org/namespaces/inkscape"
   inkscape:version="1.0 (4035a4fb49, 2020-05-01)"
   sodipodi:docname="web-diagram.svg"
   id="svg42"
   height="510"
   width="510"
   version="1.1">
  <metadata
     id="metadata48">
    <rdf:RDF>
      <cc:Work
         rdf:about="">
        <dc:format>image/svg+xml</dc:format>
        <dc:type
           rdf:resource="http://purl.org/dc/dcmitype/StillImage" />
      </cc:Work>
    </rdf:RDF>
  </metadata>
  <defs
     id="defs46" />
  <sodipodi:namedview
     inkscape:current-layer="strokes"
     inkscape:window-maximized="0"
     inkscape:window-y="543"
     inkscape:window-x="692"
     inkscape:cy="255"
     inkscape:cx="255"
     inkscape:zoom="1.9764706"
     showgrid="false"
     id="namedview44"
     inkscape:window-height="1434"
     inkscape:window-width="1957"
     inkscape:pageshadow="2"
     inkscape:pageopacity="0"
     guidetolerance="10"
     gridtolerance="10"
     objecttolerance="10"
     borderopacity="1"
     bordercolor="#666666"
     pagecolor="#ffffff" />
  <g
     inkscape:label="View Layer_LineSet"
     inkscape:groupmode="lineset"
     id="View Layer_LineSet">
    <g
       inkscape:label="strokes"
       id="strokes"
       inkscape:groupmode="layer">
      <path
         style="stroke:#000000;stroke-opacity:1"
         id="path2"
         d=" M 331.746, -32.741 333.880, -19.162 335.765, -7.180 337.361, 2.960 338.643, 11.099 339.640, 17.414 340.392, 22.168 340.940, 25.617 341.323, 28.019 341.582, 29.628 341.756, 30.696 341.885, 31.478 342.002, 32.183 342.113, 32.857 342.219, 33.501 342.321, 34.117 342.418, 34.708 342.511, 35.275 342.601, 35.821 342.688, 36.348 342.772, 36.858 342.853, 37.353 342.932, 37.835 343.009, 38.307 343.085, 38.770 343.160, 39.226 343.234, 39.679 343.308, 40.129 343.382, 40.579 343.456, 41.031 343.531, 41.487 343.606, 41.950 343.684, 42.421 343.763, 42.903 343.844, 43.397 343.927, 43.906 344.014, 44.432 344.103, 44.977 344.197, 45.543 344.294, 46.132 344.395, 46.747 344.501, 47.388 344.612, 48.060 344.728, 48.763 344.850, 49.500 344.977, 50.272 345.112, 51.083 345.252, 51.933 345.400, 52.826 345.556, 53.763 345.719, 54.746 345.890, 55.777 346.070, 56.859 346.258, 57.993 346.456, 59.182 346.663, 60.427 346.879, 61.731 347.107, 63.096 347.344, 64.523 347.593, 66.016 347.852, 67.575 348.123, 69.203 348.407, 70.902 348.702, 72.674 349.010, 74.521 349.331, 76.444 349.664, 78.447 350.012, 80.531 350.374, 82.697 350.749, 84.949 351.139, 87.287 351.545, 89.714 351.965, 92.232 352.401, 94.842 352.852, 97.547 353.320, 100.349 353.805, 103.248 354.306, 106.249 354.824, 109.351 355.360, 112.557 355.913, 115.869 356.485, 119.288 357.075, 122.818 357.683, 126.458 358.310, 130.208 358.954, 134.057 359.611, 137.989 360.280, 141.990 360.958, 146.045 361.643, 150.139 362.334, 154.257 362.882, 158.352 358.206, 158.032 353.440, 157.478 348.638, 156.918 343.802, 156.355 342.922, 156.253 338.933, 155.788 334.029, 155.219 329.091, 154.645 324.516, 154.291 323.566, 154.326 "
         stroke-linejoin="miter"
         stroke="rgb(255, 0, 130)"
         stroke-opacity="1.0"
         stroke-linecap="butt"
         stroke-width="5.09999942779541"
         fill="none" />
      <path
         style="stroke:#000000;stroke-opacity:1"
         id="path4"
         d=" M 388.197, 152.866 387.344, 148.828 386.683, 144.721 386.678, 144.689 386.015, 140.576 385.358, 136.504 384.710, 132.486 384.073, 128.538 383.450, 124.675 382.842, 120.911 382.253, 117.261 381.682, 113.723 381.128, 110.297 380.592, 106.980 380.073, 103.771 379.572, 100.668 379.087, 97.668 378.618, 94.771 378.165, 91.974 377.728, 89.274 377.306, 86.671 376.900, 84.163 376.508, 81.746 376.131, 79.420 375.768, 77.183 375.418, 75.031 375.082, 72.964 374.760, 70.979 374.450, 69.075 374.153, 67.249 373.868, 65.499 373.594, 63.823 373.333, 62.219 373.082, 60.686 372.843, 59.220 372.614, 57.820 372.395, 56.485 372.186, 55.210 371.987, 53.996 371.797, 52.839 371.616, 51.738 371.443, 50.690 371.279, 49.693 371.122, 48.745 370.973, 47.845 370.831, 46.989 370.696, 46.176 370.568, 45.404 370.445, 44.670 370.329, 43.973 370.218, 43.310 370.112, 42.679 370.011, 42.078 369.914, 41.505 369.822, 40.958 369.733, 40.434 369.648, 39.932 369.566, 39.449 369.486, 38.984 369.409, 38.533 369.335, 38.095 369.261, 37.668 369.189, 37.249 369.119, 36.837 369.048, 36.429 368.979, 36.024 368.909, 35.618 368.839, 35.210 368.768, 34.797 368.696, 34.378 368.623, 33.951 368.548, 33.513 368.470, 33.061 368.391, 32.595 368.309, 32.111 368.223, 31.608 368.134, 31.083 368.042, 30.534 367.945, 29.960 367.843, 29.357 367.737, 28.724 367.626, 28.059 367.503, 27.318 367.336, 26.294 367.087, 24.738 366.718, 22.402 366.191, 19.036 365.467, 14.388 364.508, 8.204 363.273, 0.230 361.736, -9.712 359.922, -21.463 357.866, -34.782 "
         stroke-linejoin="miter"
         stroke="rgb(255, 0, 130)"
         stroke-opacity="1.0"
         stroke-linecap="butt"
         stroke-width="5.09999942779541"
         fill="none" />
      <path
         style="stroke:#000000;stroke-opacity:1"
         id="path6"
         d=" M 154.107, 364.736 160.691, 366.263 169.333, 368.268 177.882, 370.251 186.338, 372.213 194.703, 374.154 202.980, 376.074 210.723, 377.712 212.537, 378.018 214.360, 378.325 216.193, 378.634 218.035, 378.945 218.443, 379.014 219.886, 379.257 221.747, 379.571 223.278, 379.734 221.098, 375.585 220.854, 375.156 218.539, 371.094 215.971, 366.589 213.392, 362.070 210.803, 357.537 208.202, 352.991 205.589, 348.434 203.070, 343.887 205.043, 342.761 207.041, 341.850 209.016, 340.949 210.967, 340.058 212.890, 339.179 214.783, 338.314 216.640, 337.465 218.458, 336.634 220.234, 335.822 221.967, 335.030 223.659, 334.256 225.311, 333.501 226.923, 332.763 228.497, 332.043 230.033, 331.341 231.533, 330.654 232.997, 329.985 234.426, 329.330 235.821, 328.692 237.182, 328.068 238.512, 327.460 239.810, 326.865 241.077, 326.285 242.315, 325.718 243.524, 325.164 244.704, 324.623 245.857, 324.094 246.984, 323.578 248.084, 323.073 249.160, 322.580 250.212, 322.098 251.239, 321.626 252.245, 321.165 253.228, 320.713 254.190, 320.272 255.131, 319.840 256.053, 319.416 256.956, 319.002 257.840, 318.595 258.707, 318.197 259.558, 317.806 260.392, 317.423 261.210, 317.046 262.014, 316.677 262.804, 316.313 263.580, 315.956 264.344, 315.605 265.096, 315.258 265.837, 314.917 266.567, 314.581 267.288, 314.250 267.999, 313.922 268.702, 313.598 269.397, 313.278 270.085, 312.961 270.766, 312.647 271.441, 312.336 272.111, 312.027 272.777, 311.720 273.439, 311.415 274.098, 311.112 274.754, 310.809 275.409, 310.508 276.062, 310.206 276.714, 309.906 277.367, 309.605 278.020, 309.304 278.675, 309.002 279.332, 308.699 279.991, 308.395 280.653, 308.090 281.320, 307.783 281.991, 307.474 282.667, 307.162 283.349, 306.848 284.037, 306.531 284.732, 306.211 285.435, 305.888 286.146, 305.560 286.866, 305.229 287.595, 304.893 288.334, 304.553 289.084, 304.208 289.846, 303.858 290.619, 303.502 291.404, 303.141 292.203, 302.774 293.015, 302.401 293.841, 302.021 294.677, 301.635 295.521, 301.243 296.368, 300.844 297.216, 300.439 298.061, 300.029 298.899, 299.612 299.728, 299.189 300.544, 298.760 301.349, 298.324 302.144, 297.881 302.930, 297.430 303.710, 296.970 304.484, 296.500 305.255, 296.020 306.024, 295.529 306.792, 295.027 307.556, 294.514 308.316, 293.994 309.067, 293.466 309.808, 292.934 310.537, 292.400 311.250, 291.863 311.946, 291.328 312.622, 290.794 313.280, 290.259 313.922, 289.723 314.550, 289.181 315.165, 288.631 315.769, 288.072 316.364, 287.501 316.953, 286.915 317.535, 286.313 318.112, 285.695 318.683, 285.061 319.246, 284.412 319.801, 283.748 320.348, 283.071 320.886, 282.380 321.414, 281.677 321.932, 280.962 322.440, 280.236 322.939, 279.500 323.427, 278.756 323.906, 278.005 324.376, 277.247 324.837, 276.484 325.290, 275.718 325.733, 274.948 326.168, 274.175 326.594, 273.397 327.011, 272.615 327.418, 271.826 327.816, 271.032 328.203, 270.230 328.581, 269.420 328.948, 268.601 329.305, 267.775 329.651, 266.941 329.987, 266.102 330.313, 265.258 330.627, 264.410 330.932, 263.558 331.225, 262.704 331.508, 261.849 331.781, 260.992 332.043, 260.133 332.296, 259.272 332.540, 258.407 332.774, 257.539 333.000, 256.667 333.218, 255.791 333.427, 254.911 333.629, 254.026 333.822, 253.137 334.008, 252.243 334.185, 251.346 334.354, 250.444 334.515, 249.540 334.668, 248.631 334.812, 247.720 334.948, 246.805 335.075, 245.888 335.193, 244.968 335.302, 244.045 335.401, 243.121 335.491, 242.195 335.570, 241.267 335.639, 240.337 335.698, 239.407 335.747, 238.475 335.786, 237.543 335.814, 236.609 335.832, 235.676 335.840, 234.741 335.837, 233.807 335.824, 232.873 335.801, 231.938 335.768, 231.004 335.724, 230.071 335.670, 229.138 335.606, 228.206 335.531, 227.275 335.447, 226.345 335.349, 225.397 335.221, 224.333 335.045, 223.038 334.802, 221.394 334.472, 219.284 334.036, 216.590 333.475, 213.195 332.770, 208.979 331.906, 203.863 330.899, 197.922 329.767, 191.270 329.121, 187.475 328.532, 184.023 327.213, 176.296 325.830, 168.208 324.404, 159.880 324.211, 158.601 323.566, 154.326 323.088, 151.162 325.554, 142.450 328.102, 133.876 330.641, 125.314 333.170, 116.773 335.114, 110.206 335.690, 108.259 338.200, 99.773 340.701, 91.315 342.920, 83.462 341.166, 83.635 339.169, 84.046 337.181, 84.455 335.203, 84.863 333.234, 85.268 331.274, 85.672 330.970, 85.734 329.324, 86.073 327.378, 86.659 324.043, 88.249 320.456, 90.129 316.851, 92.020 313.228, 93.921 313.067, 94.005 "
         stroke-linejoin="miter"
         stroke="rgb(255, 0, 130)"
         stroke-opacity="1.0"
         stroke-linecap="butt"
         stroke-width="5.09999942779541"
         fill="none" />
      <path
         style="stroke:#000000;stroke-opacity:1"
         id="path8"
         d=" M 256.937, 97.452 262.314, 104.490 268.062, 111.965 273.765, 119.381 279.424, 126.736 285.039, 134.032 290.609, 141.262 296.129, 148.420 301.598, 155.652 303.264, 164.431 304.728, 172.871 306.149, 181.056 307.502, 188.855 308.767, 196.143 309.920, 202.797 310.941, 208.693 311.808, 213.709 312.507, 217.765 313.052, 220.946 313.465, 223.380 313.767, 225.191 313.978, 226.504 314.121, 227.445 314.215, 228.139 314.283, 228.709 314.340, 229.259 314.392, 229.810 314.437, 230.361 314.477, 230.914 314.510, 231.467 314.537, 232.020 314.558, 232.573 314.572, 233.127 314.580, 233.681 314.583, 234.235 314.579, 234.789 314.568, 235.342 314.552, 235.895 314.530, 236.448 314.501, 237.000 314.466, 237.552 314.425, 238.103 314.378, 238.653 314.324, 239.202 314.265, 239.750 314.199, 240.296 314.127, 240.842 314.050, 241.386 313.966, 241.928 313.876, 242.469 313.780, 243.009 313.677, 243.546 313.569, 244.082 313.455, 244.616 313.335, 245.147 313.209, 245.676 313.077, 246.203 312.939, 246.728 312.795, 247.250 312.646, 247.769 312.490, 248.286 312.329, 248.800 312.162, 249.311 311.989, 249.819 311.811, 250.324 311.626, 250.825 311.436, 251.324 311.241, 251.819 311.040, 252.310 310.833, 252.798 310.621, 253.282 310.403, 253.763 310.180, 254.239 309.952, 254.712 309.718, 255.180 309.478, 255.645 309.234, 256.105 308.984, 256.560 308.729, 257.012 308.469, 257.458 308.204, 257.901 307.934, 258.338 307.659, 258.771 307.379, 259.198 307.094, 259.621 306.804, 260.039 306.509, 260.452 306.210, 260.859 305.906, 261.261 305.597, 261.658 305.284, 262.049 304.967, 262.435 304.644, 262.815 304.318, 263.189 303.987, 263.558 303.652, 263.920 303.313, 264.277 302.969, 264.628 302.621, 264.973 302.266, 265.314 301.904, 265.651 301.535, 265.984 301.157, 266.316 300.768, 266.645 300.370, 266.974 299.959, 267.301 299.536, 267.628 299.101, 267.952 298.652, 268.273 298.190, 268.589 297.714, 268.900 297.224, 269.204 296.718, 269.501 296.197, 269.790 295.658, 270.073 295.098, 270.354 294.515, 270.635 293.905, 270.919 293.267, 271.210 292.597, 271.509 291.893, 271.821 291.153, 272.147 290.382, 272.486 289.588, 272.834 288.777, 273.189 287.955, 273.548 287.130, 273.908 286.309, 274.266 285.497, 274.619 284.701, 274.966 283.922, 275.304 283.158, 275.636 282.409, 275.961 281.674, 276.280 280.953, 276.593 280.245, 276.900 279.549, 277.201 278.864, 277.497 278.190, 277.789 277.526, 278.076 276.871, 278.359 276.224, 278.638 275.585, 278.913 274.953, 279.186 274.328, 279.455 273.708, 279.722 273.093, 279.987 272.482, 280.250 271.874, 280.512 271.269, 280.773 270.665, 281.032 270.063, 281.291 269.461, 281.551 268.858, 281.810 268.254, 282.070 267.648, 282.330 267.039, 282.592 266.427, 282.856 265.810, 283.122 265.188, 283.389 264.561, 283.660 263.926, 283.933 263.284, 284.210 262.634, 284.490 261.975, 284.775 261.306, 285.064 260.627, 285.358 259.936, 285.656 259.232, 285.961 258.516, 286.271 257.786, 286.587 257.041, 286.910 256.280, 287.240 255.504, 287.577 254.710, 287.922 253.898, 288.275 253.067, 288.636 252.217, 289.006 251.346, 289.385 250.454, 289.774 249.539, 290.173 248.602, 290.582 247.640, 291.002 246.654, 291.433 245.642, 291.876 244.603, 292.330 243.537, 292.797 242.442, 293.276 241.318, 293.769 240.164, 294.275 238.979, 294.795 237.761, 295.330 236.510, 295.879 235.226, 296.443 233.906, 297.024 232.551, 297.620 231.158, 298.233 229.728, 298.863 228.258, 299.510 226.749, 300.175 225.198, 300.859 223.605, 301.561 221.970, 302.283 220.289, 303.025 218.564, 303.786 216.792, 304.569 214.973, 305.373 213.104, 306.199 211.186, 307.047 209.218, 307.917 207.203, 308.809 205.147, 309.718 203.055, 310.644 200.931, 311.584 198.779, 312.537 196.603, 313.502 194.341, 314.285 193.871, 308.617 193.785, 307.353 193.479, 302.852 193.081, 297.082 192.681, 291.310 192.278, 285.536 191.872, 279.759 191.465, 273.981 190.932, 268.731 189.326, 268.414 187.511, 268.385 185.705, 268.356 183.909, 268.328 182.122, 268.299 180.345, 268.271 178.576, 268.243 176.824, 268.500 171.728, 275.885 166.305, 283.943 160.847, 292.055 155.355, 300.223 149.831, 308.445 144.275, 316.720 138.693, 325.044 132.090, 333.751 110.105, 343.287 87.037, 353.033 63.260, 363.080 38.770, 373.429 13.548, 384.087 -12.432, 395.066 -39.204, 406.379 "
         stroke-linejoin="miter"
         stroke="rgb(255, 0, 130)"
         stroke-opacity="1.0"
         stroke-linecap="butt"
         stroke-width="5.09999942779541"
         fill="none" />
      <path
         style="stroke:#000000;stroke-opacity:1"
         id="path10"
         d=" M -43.562, 452.799 -17.511, 441.266 9.398, 429.228 35.500, 417.551 60.826, 406.222 85.405, 395.226 109.258, 384.555 132.387, 374.206 154.107, 364.736 154.176, 364.705 154.590, 364.525 "
         stroke-linejoin="miter"
         stroke="rgb(255, 0, 130)"
         stroke-opacity="1.0"
         stroke-linecap="butt"
         stroke-width="5.09999942779541"
         fill="none" />
      <path
         style="stroke:#000000;stroke-opacity:1"
         id="path12"
         d=" M 190.932, 268.731 185.852, 276.272 180.365, 284.501 174.842, 292.786 169.283, 301.129 163.691, 309.529 158.067, 317.985 152.414, 326.492 145.768, 335.397 123.451, 345.158 100.065, 355.146 75.944, 365.449 51.084, 376.068 25.465, 387.012 -0.943, 398.293 -28.174, 409.925 "
         stroke-linejoin="miter"
         stroke="rgb(255, 0, 130)"
         stroke-opacity="1.0"
         stroke-linecap="butt"
         stroke-width="5.09999942779541"
         fill="none" />
      <path
         style="stroke:#000000;stroke-opacity:1"
         id="path14"
         d=" M 324.516, 154.291 330.561, 162.335 337.009, 170.860 343.397, 179.305 349.728, 187.671 356.000, 195.956 362.214, 204.158 368.365, 212.266 374.453, 220.457 376.303, 230.644 377.932, 240.446 379.511, 249.947 381.016, 258.999 382.421, 267.455 383.702, 275.172 384.836, 282.009 385.798, 287.825 386.574, 292.526 387.180, 296.214 387.638, 299.034 387.973, 301.133 388.208, 302.656 388.366, 303.748 388.471, 304.553 388.545, 305.215 388.610, 305.855 388.667, 306.496 388.717, 307.138 388.761, 307.782 388.798, 308.426 388.828, 309.071 388.851, 309.717 388.867, 310.364 388.877, 311.011 388.879, 311.659 388.875, 312.306 388.864, 312.954 388.846, 313.602 388.821, 314.250 388.789, 314.897 388.750, 315.545 388.705, 316.191 388.653, 316.837 388.594, 317.483 388.528, 318.127 388.455, 318.771 388.376, 319.413 388.290, 320.055 388.197, 320.695 388.097, 321.333 387.991, 321.970 387.877, 322.605 387.758, 323.239 387.631, 323.870 387.498, 324.499 387.359, 325.127 387.212, 325.751 387.060, 326.374 386.900, 326.994 386.734, 327.611 386.562, 328.226 386.383, 328.837 386.198, 329.446 386.007, 330.051 385.809, 330.654 385.604, 331.253 385.394, 331.848 385.177, 332.440 384.954, 333.028 384.725, 333.613 384.489, 334.193 384.248, 334.769 384.000, 335.342 383.747, 335.910 383.487, 336.473 383.222, 337.032 382.951, 337.587 382.674, 338.137 382.391, 338.682 382.102, 339.222 381.808, 339.757 381.508, 340.287 381.203, 340.812 380.892, 341.331 380.576, 341.845 380.254, 342.353 379.927, 342.856 379.595, 343.353 379.257, 343.844 378.914, 344.329 378.567, 344.808 378.214, 345.281 377.856, 345.748 377.493, 346.208 377.126, 346.662 376.753, 347.109 376.376, 347.550 375.995, 347.983 375.607, 348.412 375.213, 348.835 374.811, 349.254 374.401, 349.669 373.980, 350.083 373.548, 350.495 373.105, 350.907 372.648, 351.319 372.178, 351.730 371.694, 352.140 371.195, 352.546 370.681, 352.948 370.151, 353.345 369.605, 353.735 369.043, 354.117 368.463, 354.492 367.863, 354.861 367.239, 355.228 366.590, 355.597 365.911, 355.972 365.200, 356.357 364.453, 356.754 363.669, 357.168 362.844, 357.602 361.985, 358.052 361.100, 358.515 360.195, 358.988 359.279, 359.466 358.359, 359.945 357.442, 360.422 356.536, 360.893 355.648, 361.354 354.778, 361.806 353.925, 362.248 353.089, 362.682 352.268, 363.107 351.463, 363.525 350.671, 363.934 349.893, 364.337 349.128, 364.733 348.374, 365.122 347.632, 365.506 346.899, 365.884 346.176, 366.257 345.462, 366.625 344.755, 366.990 344.055, 367.350 343.361, 367.708 342.673, 368.062 341.989, 368.414 341.308, 368.765 340.630, 369.114 339.955, 369.461 339.280, 369.809 338.605, 370.156 337.930, 370.503 337.253, 370.851 336.574, 371.201 335.892, 371.552 335.205, 371.905 334.514, 372.261 333.817, 372.620 333.113, 372.983 332.401, 373.350 331.681, 373.721 330.952, 374.097 330.212, 374.479 329.461, 374.866 328.698, 375.260 327.923, 375.661 327.133, 376.069 326.328, 376.486 325.508, 376.910 324.671, 377.344 323.817, 377.786 322.944, 378.239 322.051, 378.702 321.138, 379.176 320.204, 379.661 319.248, 380.158 318.268, 380.668 317.264, 381.190 316.235, 381.726 315.179, 382.276 314.097, 382.840 312.986, 383.420 311.846, 384.015 310.675, 384.626 309.473, 385.254 308.239, 385.899 306.972, 386.562 305.670, 387.243 304.333, 387.943 302.958, 388.662 301.547, 389.402 300.096, 390.163 298.605, 390.944 297.073, 391.748 295.499, 392.574 293.882, 393.423 292.220, 394.296 290.511, 395.194 288.756, 396.116 286.953, 397.065 285.100, 398.039 283.196, 399.041 281.239, 400.071 279.230, 401.129 277.165, 402.217 275.044, 403.334 272.866, 404.482 270.629, 405.661 268.339, 406.868 266.001, 408.101 263.620, 409.357 261.202, 410.632 258.751, 411.926 256.270, 413.236 253.694, 414.343 253.154, 407.649 252.771, 401.826 252.706, 400.839 252.252, 394.023 251.794, 387.204 251.333, 380.382 250.869, 373.558 250.404, 366.729 249.789, 360.528 247.708, 359.877 245.375, 359.558 243.056, 359.241 240.752, 358.927 238.462, 358.614 236.186, 358.303 233.924, 357.994 231.698, 358.048 225.878, 367.120 220.854, 375.156 "
         stroke-linejoin="miter"
         stroke="rgb(255, 0, 130)"
         stroke-opacity="1.0"
         stroke-linecap="butt"
         stroke-width="5.09999942779541"
         fill="none" />
      <path
         style="stroke:#000000;stroke-opacity:1"
         id="path16"
         d=" M 89.248, 540.756 114.600, 527.157 139.181, 513.971 163.013, 501.187 186.104, 488.799 208.360, 477.168 219.370, 478.333 229.426, 480.034 239.368, 481.708 249.191, 483.355 258.893, 484.978 268.475, 486.578 277.936, 488.156 286.588, 489.495 284.123, 484.784 281.222, 479.689 278.308, 474.575 275.380, 469.442 272.438, 464.289 269.481, 459.119 266.509, 453.934 263.645, 448.756 265.887, 447.257 268.160, 446.018 270.405, 444.792 272.621, 443.581 274.806, 442.387 276.955, 441.213 279.062, 440.061 281.124, 438.933 283.137, 437.833 285.102, 436.759 287.019, 435.710 288.889, 434.687 290.714, 433.689 292.495, 432.715 294.233, 431.764 295.928, 430.837 297.583, 429.931 299.197, 429.048 300.773, 428.185 302.311, 427.343 303.811, 426.522 305.276, 425.720 306.706, 424.937 308.102, 424.172 309.464, 423.426 310.795, 422.697 312.094, 421.985 313.363, 421.289 314.602, 420.610 315.813, 419.946 316.997, 419.297 318.154, 418.662 319.284, 418.042 320.390, 417.435 321.472, 416.842 322.531, 416.261 323.567, 415.692 324.581, 415.135 325.575, 414.590 326.549, 414.055 327.503, 413.530 328.440, 413.016 329.359, 412.511 330.261, 412.015 331.147, 411.528 332.019, 411.049 332.876, 410.578 333.719, 410.114 334.550, 409.657 335.369, 409.207 336.176, 408.762 336.973, 408.324 337.761, 407.890 338.539, 407.462 339.310, 407.038 340.073, 406.618 340.829, 406.201 341.580, 405.788 342.325, 405.377 343.066, 404.969 343.803, 404.563 344.538, 404.159 345.270, 403.756 346.000, 403.353 346.730, 402.952 347.460, 402.550 348.190, 402.147 348.922, 401.744 349.656, 401.340 350.393, 400.934 351.133, 400.527 351.878, 400.117 352.627, 399.704 353.382, 399.289 354.144, 398.870 354.912, 398.447 355.688, 398.020 356.472, 397.588 357.266, 397.152 358.069, 396.710 358.883, 396.263 359.707, 395.809 360.544, 395.349 361.392, 394.883 362.254, 394.409 363.130, 393.928 364.020, 393.439 364.925, 392.942 365.844, 392.437 366.776, 391.923 367.715, 391.402 368.659, 390.873 369.602, 390.337 370.543, 389.794 371.475, 389.245 372.397, 388.689 373.305, 388.128 374.200, 387.559 375.083, 386.983 375.957, 386.398 376.824, 385.803 377.684, 385.197 378.540, 384.579 379.394, 383.949 380.247, 383.306 381.096, 382.651 381.939, 381.987 382.773, 381.316 383.595, 380.641 384.403, 379.963 385.195, 379.285 385.966, 378.609 386.716, 377.936 387.446, 377.264 388.158, 376.591 388.853, 375.913 389.535, 375.227 390.204, 374.530 390.864, 373.820 391.516, 373.094 392.161, 372.349 392.800, 371.586 393.431, 370.804 394.055, 370.006 394.669, 369.191 395.275, 368.362 395.870, 367.517 396.454, 366.658 397.028, 365.787 397.590, 364.903 398.141, 364.009 398.681, 363.106 399.211, 362.195 399.730, 361.278 400.240, 360.355 400.740, 359.429 401.230, 358.499 401.711, 357.566 402.182, 356.629 402.642, 355.687 403.092, 354.739 403.531, 353.784 403.959, 352.821 404.376, 351.849 404.782, 350.869 405.176, 349.880 405.558, 348.884 405.929, 347.882 406.288, 346.874 406.636, 345.863 406.971, 344.849 407.295, 343.833 407.608, 342.816 407.908, 341.798 408.198, 340.778 408.477, 339.755 408.746, 338.730 409.004, 337.702 409.254, 336.670 409.493, 335.633 409.725, 334.592 409.947, 333.546 410.160, 332.496 410.364, 331.441 410.560, 330.383 410.746, 329.320 410.923, 328.254 411.092, 327.185 411.251, 326.112 411.400, 325.036 411.540, 323.958 411.670, 322.877 411.790, 321.794 411.899, 320.709 411.998, 319.623 412.086, 318.536 412.162, 317.447 412.227, 316.358 412.280, 315.268 412.323, 314.178 412.354, 313.088 412.373, 311.997 412.382, 310.907 412.379, 309.818 412.364, 308.729 412.339, 307.640 412.302, 306.553 412.253, 305.467 412.194, 304.382 412.122, 303.299 412.040, 302.217 411.947, 301.138 411.838, 300.038 411.697, 298.806 411.503, 297.305 411.235, 295.402 410.870, 292.961 410.389, 289.845 409.769, 285.917 408.989, 281.041 408.036, 275.122 406.922, 268.248 405.671, 260.549 404.305, 252.160 402.846, 243.212 401.316, 233.844 399.738, 224.195 398.285, 214.084 401.006, 203.781 403.820, 193.643 406.623, 183.525 409.413, 173.439 412.191, 163.391 414.957, 153.382 417.711, 143.413 420.146, 134.160 417.894, 134.225 415.358, 134.564 412.835, 134.902 410.327, 135.238 407.832, 135.571 405.350, 135.903 402.883, 136.233 400.443, 136.791 396.761, 138.772 392.805, 141.107 388.826, 143.456 386.683, 144.721 "
         stroke-linejoin="miter"
         stroke="rgb(255, 0, 130)"
         stroke-opacity="1.0"
         stroke-linecap="butt"
         stroke-width="5.09999942779541"
         fill="none" />
      <path
         style="stroke:#000000;stroke-opacity:1"
         id="path18"
         d=" M 420.146, 134.160 416.543, 136.163 412.559, 138.542 408.552, 140.935 404.520, 143.343 400.464, 145.767 396.384, 148.205 392.282, 150.655 388.197, 152.866 "
         stroke-linejoin="miter"
         stroke="rgb(255, 0, 130)"
         stroke-opacity="1.0"
         stroke-linecap="butt"
         stroke-width="5.09999942779541"
         fill="none" />
      <path
         style="stroke:#000000;stroke-opacity:1"
         id="path20"
         d=" M 269.007, -27.144 270.094, -20.543 270.907, -15.618 271.491, -12.093 271.891, -9.691 272.151, -8.136 272.317, -7.157 272.434, -6.479 272.538, -5.876 272.637, -5.300 272.732, -4.750 272.823, -4.223 272.910, -3.718 272.993, -3.233 273.073, -2.766 273.151, -2.315 273.225, -1.879 273.298, -1.456 273.368, -1.044 273.438, -0.641 273.505, -0.245 273.572, 0.146 273.638, 0.532 273.704, 0.917 273.770, 1.302 273.836, 1.689 273.903, 2.079 273.971, 2.475 274.040, 2.878 274.110, 3.289 274.183, 3.712 274.257, 4.147 274.334, 4.597 274.414, 5.063 274.498, 5.547 274.584, 6.051 274.675, 6.577 274.769, 7.126 274.868, 7.700 274.972, 8.301 275.081, 8.932 275.195, 9.593 275.315, 10.286 275.441, 11.013 275.573, 11.777 275.711, 12.578 275.857, 13.419 276.010, 14.302 276.170, 15.227 276.339, 16.198 276.515, 17.215 276.700, 18.281 276.894, 19.397 277.097, 20.565 277.309, 21.787 277.531, 23.064 277.763, 24.398 278.005, 25.792 278.258, 27.247 278.522, 28.763 278.797, 30.345 279.084, 31.992 279.383, 33.707 279.693, 35.491 280.017, 37.346 280.353, 39.275 280.701, 41.278 281.064, 43.357 281.440, 45.514 281.829, 47.750 282.234, 50.068 282.652, 52.468 283.085, 54.953 283.534, 57.525 283.998, 60.184 284.477, 62.933 284.973, 65.772 285.484, 68.704 286.012, 71.731 286.557, 74.853 287.118, 78.070 287.695, 81.372 288.284, 84.746 288.883, 88.180 289.491, 91.660 290.105, 95.174 290.724, 98.710 291.211, 102.218 287.021, 101.786 282.752, 101.149 278.454, 100.507 275.223, 100.025 274.130, 99.861 269.781, 99.212 265.406, 98.560 261.005, 97.904 256.937, 97.452 254.931, 97.659 253.028, 98.060 251.135, 98.459 249.251, 98.856 247.377, 99.252 245.511, 99.645 243.656, 100.036 242.135, 100.568 247.381, 107.475 253.074, 114.793 258.724, 122.054 264.330, 129.258 269.894, 136.403 275.413, 143.487 280.884, 150.499 286.260, 157.593 287.956, 166.197 289.408, 174.475 290.816, 182.503 292.158, 190.153 293.411, 197.302 294.555, 203.829 295.567, 209.613 296.426, 214.534 297.120, 218.513 297.660, 221.634 298.070, 224.021 298.369, 225.798 298.578, 227.087 298.720, 228.010 298.813, 228.690 298.880, 229.249 298.938, 229.789 298.989, 230.330 299.034, 230.871 299.073, 231.413 299.105, 231.955 299.132, 232.498 299.153, 233.041 299.167, 233.585 299.175, 234.128 299.178, 234.671 299.174, 235.215 299.164, 235.758 299.147, 236.301 299.125, 236.843 299.096, 237.385 299.062, 237.926 299.021, 238.466 298.974, 239.006 298.921, 239.545 298.862, 240.082 298.797, 240.619 298.726, 241.154 298.649, 241.688 298.565, 242.220 298.476, 242.751 298.381, 243.280 298.280, 243.807 298.172, 244.333 298.059, 244.856 297.940, 245.378 297.815, 245.897 297.684, 246.414 297.547, 246.929 297.405, 247.441 297.256, 247.951 297.102, 248.458 296.942, 248.962 296.777, 249.463 296.605, 249.962 296.428, 250.457 296.245, 250.949 296.057, 251.438 295.863, 251.924 295.664, 252.406 295.459, 252.885 295.248, 253.360 295.032, 253.831 294.811, 254.299 294.584, 254.763 294.352, 255.222 294.115, 255.678 293.873, 256.129 293.625, 256.576 293.372, 257.019 293.115, 257.457 292.852, 257.891 292.584, 258.320 292.311, 258.745 292.033, 259.164 291.751, 259.579 291.463, 259.989 291.171, 260.394 290.874, 260.794 290.573, 261.188 290.267, 261.577 289.956, 261.961 289.641, 262.339 289.322, 262.712 288.998, 263.079 288.670, 263.441 288.338, 263.796 288.002, 264.146 287.661, 264.490 287.316, 264.829 286.964, 265.163 286.605, 265.494 286.239, 265.821 285.864, 266.146 285.479, 266.469 285.084, 266.791 284.677, 267.113 284.258, 267.433 283.826, 267.751 283.381, 268.065 282.923, 268.375 282.451, 268.680 281.965, 268.979 281.464, 269.270 280.948, 269.553 280.413, 269.831 279.858, 270.106 279.280, 270.382 278.676, 270.660 278.043, 270.945 277.379, 271.239 276.681, 271.545 275.948, 271.865 275.184, 272.197 274.397, 272.538 273.593, 272.886 272.779, 273.238 271.961, 273.591 271.147, 273.942 270.343, 274.288 269.554, 274.627 268.782, 274.960 268.025, 275.285 267.283, 275.604 266.555, 275.916 265.840, 276.222 265.138, 276.523 264.448, 276.819 263.770, 277.109 263.102, 277.395 262.444, 277.676 261.795, 277.953 261.154, 278.227 260.522, 278.497 259.896, 278.764 259.276, 279.028 258.662, 279.290 258.052, 279.549 257.447, 279.807 256.845, 280.063 256.245, 280.319 255.648, 280.573 255.051, 280.827 254.454, 281.081 253.857, 281.335 253.259, 281.590 252.659, 281.845 252.056, 282.102 251.449, 282.360 250.839, 282.620 250.223, 282.883 249.601, 283.148 248.973, 283.415 248.337, 283.687 247.693, 283.961 247.040, 284.240 246.378, 284.523 245.705, 284.811 245.020, 285.104 244.324, 285.402 243.615, 285.705 242.891, 286.015 242.154, 286.332 241.401, 286.655 240.632, 286.985 239.846, 287.323 239.042, 287.668 238.219, 288.022 237.377, 288.385 236.515, 288.756 235.632, 289.137 234.726, 289.528 233.798, 289.928 232.846, 290.339 231.870, 290.761 230.868, 291.195 229.840, 291.640 228.784, 292.097 227.701, 292.566 226.588, 293.049 225.446, 293.544 224.272, 294.054 223.067, 294.577 221.830, 295.115 220.558, 295.667 219.252, 296.235 217.911, 296.819 216.533, 297.419 215.117, 298.035 213.663, 298.669 212.170, 299.320 210.636, 299.989 209.060, 300.677 207.441, 301.383 205.779, 302.109 204.072, 302.854 202.320, 303.620 200.520, 304.407 198.672, 305.215 196.775, 306.044 194.828, 306.896 193.785, 307.353 "
         stroke-linejoin="miter"
         stroke="rgb(255, 0, 130)"
         stroke-opacity="1.0"
         stroke-linecap="butt"
         stroke-width="5.09999942779541"
         fill="none" />
      <path
         style="stroke:#000000;stroke-opacity:1"
         id="path22"
         d=" M 313.987, 98.407 313.222, 94.926 313.067, 94.005 312.622, 91.365 312.025, 87.826 311.433, 84.322 310.849, 80.866 310.276, 77.471 309.715, 74.149 309.168, 70.913 308.637, 67.774 308.123, 64.733 307.625, 61.788 307.143, 58.937 306.676, 56.179 306.225, 53.513 305.788, 50.936 305.367, 48.447 304.959, 46.044 304.566, 43.726 304.187, 41.490 303.822, 39.336 303.470, 37.261 303.130, 35.263 302.804, 33.342 302.490, 31.495 302.188, 29.720 301.898, 28.017 301.620, 26.382 301.353, 24.815 301.096, 23.313 300.851, 21.875 300.616, 20.498 300.391, 19.182 300.176, 17.925 299.970, 16.724 299.774, 15.577 299.586, 14.484 299.407, 13.442 299.236, 12.450 299.074, 11.505 298.918, 10.606 298.771, 9.751 298.630, 8.938 298.496, 8.165 298.369, 7.431 298.248, 6.734 298.132, 6.072 298.023, 5.442 297.918, 4.844 297.818, 4.276 297.723, 3.734 297.633, 3.219 297.546, 2.728 297.463, 2.258 297.383, 1.809 297.307, 1.379 297.233, 0.965 297.162, 0.565 297.093, 0.179 297.025, -0.197 296.960, -0.563 296.895, -0.922 296.831, -1.276 296.768, -1.625 296.706, -1.973 296.643, -2.321 296.580, -2.671 296.517, -3.025 296.452, -3.384 296.386, -3.751 296.319, -4.127 296.250, -4.514 296.178, -4.914 296.104, -5.328 296.028, -5.760 295.948, -6.210 295.865, -6.680 295.778, -7.173 295.687, -7.689 295.592, -8.232 295.492, -8.802 295.380, -9.447 295.219, -10.390 294.968, -11.899 294.581, -14.246 294.016, -17.698 293.230, -22.530 292.177, -29.014 "
         stroke-linejoin="miter"
         stroke="rgb(255, 0, 130)"
         stroke-opacity="1.0"
         stroke-linecap="butt"
         stroke-width="5.09999942779541"
         fill="none" />
      <path
         style="stroke:#000000;stroke-opacity:1"
         id="path24"
         d=" M 342.920, 83.462 339.642, 85.057 336.028, 86.965 332.395, 88.884 331.576, 89.316 328.743, 90.812 325.072, 92.752 321.383, 94.701 317.678, 96.657 313.987, 98.407 "
         stroke-linejoin="miter"
         stroke="rgb(255, 0, 130)"
         stroke-opacity="1.0"
         stroke-linecap="butt"
         stroke-width="5.09999942779541"
         fill="none" />
      <path
         style="stroke:#000000;stroke-opacity:1"
         id="path26"
         d=" M 154.590, 364.525 164.351, 366.104 173.115, 368.154 181.796, 370.180 190.391, 372.181 198.896, 374.158 207.314, 376.112 215.642, 378.043 218.635, 378.706 223.278, 379.734 "
         stroke-linejoin="miter"
         stroke="rgb(255, 0, 130)"
         stroke-opacity="1.0"
         stroke-linecap="butt"
         stroke-width="5.09999942779541"
         fill="none" />
      <path
         style="stroke:#000000;stroke-opacity:1"
         id="path28"
         d=" M 249.789, 360.528 243.993, 369.848 237.719, 380.017 231.394, 390.270 225.021, 400.607 218.601, 411.029 212.136, 421.533 205.631, 432.114 198.188, 443.160 175.792, 454.881 152.394, 466.846 128.241, 479.200 103.325, 491.944 77.621, 505.091 51.098, 518.658 23.719, 532.662 -2.766, 546.283 "
         stroke-linejoin="miter"
         stroke="rgb(255, 0, 130)"
         stroke-opacity="1.0"
         stroke-linecap="butt"
         stroke-width="5.09999942779541"
         fill="none" />
      <path
         style="stroke:#000000;stroke-opacity:1"
         id="path30"
         d=" M 312.671, -26.109 314.785, -12.850 316.652, -1.149 318.233, 8.753 319.504, 16.701 320.491, 22.869 321.236, 27.512 321.779, 30.881 322.159, 33.227 322.415, 34.798 322.588, 35.842 322.715, 36.605 322.831, 37.295 322.941, 37.953 323.046, 38.582 323.147, 39.184 323.243, 39.761 323.336, 40.315 323.425, 40.848 323.510, 41.363 323.593, 41.861 323.674, 42.344 323.752, 42.815 323.829, 43.276 323.904, 43.728 323.978, 44.174 324.052, 44.616 324.125, 45.055 324.198, 45.495 324.271, 45.937 324.345, 46.382 324.420, 46.834 324.497, 47.294 324.575, 47.765 324.655, 48.248 324.738, 48.745 324.824, 49.259 324.913, 49.791 325.005, 50.344 325.101, 50.919 325.201, 51.519 325.306, 52.146 325.416, 52.802 325.531, 53.489 325.652, 54.209 325.778, 54.963 325.911, 55.755 326.051, 56.586 326.197, 57.458 326.351, 58.373 326.513, 59.333 326.682, 60.340 326.860, 61.397 327.047, 62.505 327.242, 63.666 327.447, 64.883 327.662, 66.157 327.887, 67.490 328.123, 68.884 328.369, 70.342 328.626, 71.865 328.895, 73.456 329.175, 75.116 329.468, 76.847 329.773, 78.651 330.090, 80.530 330.421, 82.487 330.765, 84.523 330.970, 85.734 "
         stroke-linejoin="miter"
         stroke="rgb(255, 0, 130)"
         stroke-opacity="1.0"
         stroke-linecap="butt"
         stroke-width="5.09999942779541"
         fill="none" />
      <path
         style="stroke:#000000;stroke-opacity:1"
         id="path32"
         d=" M 335.114, 110.206 335.533, 112.681 336.064, 115.814 336.612, 119.050 337.178, 122.392 337.763, 125.840 338.366, 129.398 338.987, 133.063 339.625, 136.824 340.276, 140.667 340.939, 144.577 341.611, 148.539 342.290, 152.540 342.922, 156.253 "
         stroke-linejoin="miter"
         stroke="rgb(255, 0, 130)"
         stroke-opacity="1.0"
         stroke-linecap="butt"
         stroke-width="5.09999942779541"
         fill="none" />
      <path
         style="stroke:#000000;stroke-opacity:1"
         id="path34"
         d=" M 329.121, 187.475 330.479, 189.245 336.695, 197.338 342.853, 205.350 348.951, 213.271 354.931, 221.279 356.822, 231.237 358.437, 240.821 360.004, 250.112 361.495, 258.963 362.889, 267.233 364.159, 274.780 365.283, 281.467 366.238, 287.155 367.008, 291.753 367.608, 295.360 368.063, 298.119 368.395, 300.172 368.628, 301.662 368.785, 302.729 368.889, 303.517 368.963, 304.165 369.026, 304.790 369.083, 305.417 369.133, 306.045 369.177, 306.675 369.213, 307.305 369.243, 307.936 369.266, 308.568 369.282, 309.200 369.291, 309.833 369.294, 310.466 369.289, 311.100 369.278, 311.734 369.260, 312.367 369.236, 313.001 369.204, 313.634 369.166, 314.267 369.121, 314.900 369.069, 315.531 369.010, 316.163 368.945, 316.793 368.873, 317.422 368.794, 318.050 368.708, 318.678 368.616, 319.303 368.517, 319.928 368.411, 320.550 368.299, 321.172 368.180, 321.791 368.055, 322.408 367.923, 323.024 367.784, 323.637 367.639, 324.248 367.488, 324.857 367.330, 325.463 367.165, 326.066 366.994, 326.667 366.817, 327.265 366.633, 327.860 366.443, 328.452 366.247, 329.041 366.044, 329.626 365.835, 330.208 365.620, 330.787 365.398, 331.362 365.171, 331.933 364.938, 332.500 364.698, 333.064 364.453, 333.623 364.201, 334.178 363.944, 334.729 363.680, 335.276 363.411, 335.818 363.136, 336.355 362.856, 336.887 362.570, 337.415 362.278, 337.938 361.980, 338.456 361.677, 338.969 361.369, 339.476 361.055, 339.978 360.736, 340.475 360.412, 340.966 360.082, 341.452 359.747, 341.932 359.407, 342.406 359.062, 342.874 358.712, 343.336 358.357, 343.791 357.998, 344.241 357.633, 344.684 357.264, 345.121 356.890, 345.551 356.511, 345.975 356.127, 346.393 355.736, 346.806 355.338, 347.215 354.930, 347.621 354.513, 348.025 354.085, 348.427 353.645, 348.829 353.192, 349.231 352.726, 349.633 352.246, 350.032 351.751, 350.429 351.241, 350.821 350.716, 351.208 350.175, 351.589 349.617, 351.962 349.042, 352.327 348.447, 352.687 347.829, 353.045 347.185, 353.405 346.512, 353.771 345.807, 354.145 345.067, 354.533 344.289, 354.937 343.472, 355.359 342.620, 355.798 341.743, 356.249 340.846, 356.710 339.938, 357.175 339.026, 357.642 338.117, 358.107 337.219, 358.566 336.339, 359.015 335.477, 359.456 334.631, 359.887 333.802, 360.309 332.989, 360.724 332.191, 361.130 331.407, 361.529 330.636, 361.921 329.877, 362.307 329.130, 362.686 328.395, 363.060 327.669, 363.428 326.952, 363.791 326.245, 364.150 325.544, 364.505 324.851, 364.856 324.164, 365.205 323.482, 365.550 322.804, 365.893 322.130, 366.234 321.458, 366.574 320.789, 366.912 320.120, 367.250 319.452, 367.588 318.783, 367.927 318.113, 368.266 317.440, 368.606 316.764, 368.948 316.085, 369.292 315.400, 369.639 314.709, 369.988 314.012, 370.341 313.307, 370.698 312.594, 371.060 311.872, 371.426 311.139, 371.797 310.396, 372.175 309.640, 372.558 308.872, 372.949 308.090, 373.346 307.293, 373.751 306.481, 374.164 305.653, 374.586 304.807, 375.017 303.942, 375.458 303.059, 375.909 302.155, 376.370 301.230, 376.842 300.283, 377.326 299.313, 377.822 298.320, 378.330 297.301, 378.852 296.256, 379.387 295.184, 379.936 294.085, 380.500 292.957, 381.078 291.798, 381.673 290.609, 382.284 289.388, 382.911 288.133, 383.556 286.845, 384.219 285.522, 384.900 284.162, 385.600 282.765, 386.319 281.330, 387.059 279.855, 387.819 278.340, 388.601 276.783, 389.404 275.183, 390.230 273.539, 391.079 271.849, 391.952 270.114, 392.849 268.330, 393.771 266.497, 394.718 264.615, 395.692 262.681, 396.693 260.694, 397.722 258.652, 398.779 256.556, 399.865 254.402, 400.980 252.771, 401.826 "
         stroke-linejoin="miter"
         stroke="rgb(255, 0, 130)"
         stroke-opacity="1.0"
         stroke-linecap="butt"
         stroke-width="5.09999942779541"
         fill="none" />
      <path
         style="stroke:#000000;stroke-opacity:1"
         id="path36"
         d=" M 252.619, -30.005 254.014, -21.616 255.091, -15.147 255.896, -10.321 256.475, -6.866 256.871, -4.512 257.129, -2.989 257.293, -2.029 257.409, -1.365 257.512, -0.773 257.610, -0.209 257.704, 0.331 257.794, 0.847 257.880, 1.342 257.963, 1.817 258.042, 2.275 258.119, 2.716 258.193, 3.144 258.264, 3.558 258.334, 3.962 258.403, 4.358 258.470, 4.746 258.536, 5.128 258.602, 5.507 258.667, 5.885 258.732, 6.262 258.798, 6.641 258.864, 7.023 258.931, 7.411 258.999, 7.806 259.069, 8.209 259.141, 8.624 259.215, 9.050 259.291, 9.491 259.370, 9.948 259.453, 10.422 259.539, 10.916 259.628, 11.431 259.722, 11.970 259.820, 12.532 259.923, 13.122 260.030, 13.739 260.143, 14.387 260.262, 15.067 260.387, 15.780 260.518, 16.528 260.655, 17.314 260.799, 18.138 260.951, 19.003 261.110, 19.910 261.276, 20.861 261.451, 21.858 261.634, 22.903 261.826, 23.997 262.027, 25.141 262.238, 26.339 262.457, 27.591 262.687, 28.899 262.927, 30.265 263.178, 31.691 263.439, 33.178 263.712, 34.727 263.996, 36.342 264.292, 38.023 264.600, 39.772 264.920, 41.591 265.252, 43.481 265.598, 45.444 265.957, 47.482 266.329, 49.596 266.716, 51.789 267.116, 54.061 267.531, 56.414 267.960, 58.850 268.404, 61.371 268.864, 63.978 269.339, 66.672 269.830, 69.456 270.336, 72.331 270.860, 75.298 271.400, 78.359 271.956, 81.513 272.527, 84.750 273.110, 88.058 273.704, 91.424 274.306, 94.836 274.915, 98.282 275.223, 100.025 "
         stroke-linejoin="miter"
         stroke="rgb(255, 0, 130)"
         stroke-opacity="1.0"
         stroke-linecap="butt"
         stroke-width="5.09999942779541"
         fill="none" />
      <path
         style="stroke:#000000;stroke-opacity:1"
         id="path38"
         d=" M 218.443, 379.014 213.439, 387.020 207.148, 397.090 200.812, 407.240 194.433, 417.468 188.016, 427.769 180.625, 438.505 158.602, 449.878 135.559, 461.464 111.789, 473.416 87.287, 485.737 62.032, 498.437 35.993, 511.531 9.136, 525.037 -16.747, 538.204 "
         stroke-linejoin="miter"
         stroke="rgb(255, 0, 130)"
         stroke-opacity="1.0"
         stroke-linecap="butt"
         stroke-width="5.09999942779541"
         fill="none" />
    </g>
  </g>
</svg>
